<svg xmlns="http://www.w3.org/2000/svg" width="480" height="270" viewBox="0 0 480 270"><defs><style>.a{fill:#f5f5f5;}.b{font-size:88px;fill:#171717;font-family:Georgia;}.c{fill:none;stroke:#0071bc;stroke-miterlimit:10;stroke-width:0.75px;}.d{fill:#0071bc;}.e{font-size:18px;font-family:Arial-BoldMT, Arial;font-weight:700;}</style></defs><rect class="a" width="480" height="270"/><text class="b" transform="translate(166.67 108.33)">Mg</text><text class="b" transform="translate(166.67 204.33)">Mg</text><line class="c" x1="126" y1="47.5" x2="326" y2="47.5"/><line class="c" x1="126" y1="108.5" x2="326" y2="108.5"/><line class="c" x1="126" y1="127.5" x2="326" y2="127.5"/><line class="c" x1="126" y1="143.5" x2="326" y2="143.5"/><line class="c" x1="126" y1="204.5" x2="326" y2="204.5"/><line class="c" x1="126" y1="223.5" x2="326" y2="223.5"/><line class="c" x1="319.5" y1="50.15" x2="319.5" y2="106.35"/><polygon class="d" points="318 50.59 319.5 48 321 50.59 318 50.59"/><polygon class="d" points="318 105.91 319.5 108.5 321 105.91 318 105.91"/><line class="c" x1="319.5" y1="129.65" x2="319.5" y2="221.35"/><polygon class="d" points="318 130.09 319.5 127.5 321 130.09 318 130.09"/><polygon class="d" points="318 220.91 319.5 223.5 321 220.91 318 220.91"/><line class="c" x1="132.5" y1="130.15" x2="132.5" y2="141.35"/><polygon class="d" points="131 130.59 132.5 128 134 130.59 131 130.59"/><polygon class="d" points="131 140.91 132.5 143.5 134 140.91 131 140.91"/><line class="c" x1="319.5" y1="110.65" x2="319.5" y2="125.35"/><polygon class="d" points="318 111.09 319.5 108.5 321 111.09 318 111.09"/><polygon class="d" points="318 124.91 319.5 127.5 321 124.91 318 124.91"/><text class="e" transform="translate(333.93 124.78)">Descent</text><text class="e" transform="translate(333.93 180.78)">Height</text><text class="e" transform="translate(44.93 139.78)">Spacing</text><text class="e" transform="translate(335.93 85.78)">Ascent</text></svg>