<svg xmlns="http://www.w3.org/2000/svg" viewBox="0 0 359.03 197.17"><defs><style>.a{font-size:88px;fill:#171717;font-family:Georgia;}.b{fill:none;stroke:#0071bc;stroke-miterlimit:10;stroke-width:0.75px;}.c{fill:#0071bc;}.d{font-size:18px;font-family:Arial-BoldMT, Arial;font-weight:700;}</style></defs><text class="a" transform="translate(121.74 74.49)">Mg</text><text class="a" transform="translate(121.74 170.49)">Mg</text><line class="b" x1="81.07" y1="13.65" x2="281.07" y2="13.65"/><line class="b" x1="81.07" y1="74.65" x2="281.07" y2="74.65"/><line class="b" x1="81.07" y1="93.65" x2="281.07" y2="93.65"/><line class="b" x1="81.07" y1="109.65" x2="281.07" y2="109.65"/><line class="b" x1="81.07" y1="170.65" x2="281.07" y2="170.65"/><line class="b" x1="81.07" y1="189.65" x2="281.07" y2="189.65"/><line class="b" x1="274.57" y1="16.31" x2="274.57" y2="72.5"/><polygon class="c" points="273.08 16.74 274.57 14.15 276.07 16.74 273.08 16.74"/><polygon class="c" points="273.08 72.06 274.57 74.65 276.07 72.06 273.08 72.06"/><line class="b" x1="274.57" y1="95.81" x2="274.57" y2="187.5"/><polygon class="c" points="273.08 96.24 274.57 93.65 276.07 96.24 273.08 96.24"/><polygon class="c" points="273.08 187.06 274.57 189.65 276.07 187.06 273.08 187.06"/><line class="b" x1="87.57" y1="96.31" x2="87.57" y2="107.5"/><polygon class="c" points="86.08 96.74 87.57 94.15 89.07 96.74 86.08 96.74"/><polygon class="c" points="86.08 107.06 87.57 109.65 89.07 107.06 86.08 107.06"/><line class="b" x1="274.57" y1="76.81" x2="274.57" y2="91.5"/><polygon class="c" points="273.08 77.24 274.57 74.65 276.07 77.24 273.08 77.24"/><polygon class="c" points="273.08 91.06 274.57 93.65 276.07 91.06 273.08 91.06"/><text class="d" transform="translate(289 90.93)">Descent</text><text class="d" transform="translate(289 146.93)">Height</text><text class="d" transform="translate(0 105.93)">Spacing</text><text class="d" transform="translate(291 51.93)">Ascent</text></svg>