<svg version="1.1" viewBox="0.0 0.0 645.0 435.0" fill="none" stroke="none" stroke-linecap="square" stroke-miterlimit="10" xmlns:xlink="http://www.w3.org/1999/xlink" xmlns="http://www.w3.org/2000/svg"><clipPath id="p.0"><path d="m0 0l645.0 0l0 435.0l-645.0 0l0 -435.0z" clip-rule="nonzero"/></clipPath><g clip-path="url(#p.0)"><path fill="#000000" fill-opacity="0.0" d="m0 0l645.0 0l0 435.0l-645.0 0z" fill-rule="evenodd"/><path fill="#000000" fill-opacity="0.0" d="m187.51181 27.048136l0 0c0 -4.6869392 3.7995148 -8.486456 8.48645 -8.486456l423.53104 0c2.2507324 0 4.4093018 0.8941059 6.0008545 2.4856262c1.5914917 1.5915184 2.4855957 3.750082 2.4855957 6.0008297l0 381.4523c0 4.68692 -3.7994995 8.48645 -8.48645 8.48645l-423.53104 0c-4.6869354 0 -8.48645 -3.79953 -8.48645 -8.48645z" fill-rule="evenodd"/><path stroke="#cccccc" stroke-width="2.0" stroke-linejoin="round" stroke-linecap="butt" stroke-dasharray="8.0,6.0" d="m187.51181 27.048136l0 0c0 -4.6869392 3.7995148 -8.486456 8.48645 -8.486456l423.53104 0c2.2507324 0 4.4093018 0.8941059 6.0008545 2.4856262c1.5914917 1.5915184 2.4855957 3.750082 2.4855957 6.0008297l0 381.4523c0 4.68692 -3.7994995 8.48645 -8.48645 8.48645l-423.53104 0c-4.6869354 0 -8.48645 -3.79953 -8.48645 -8.48645z" fill-rule="evenodd"/><path fill="#999999" d="m209.60678 40.592278q0.046875 -1.3125 -0.25 -2.375q-0.296875 -1.078125 -0.890625 -1.84375q-0.59375 -0.765625 -1.46875 -1.1875q-0.859375 -0.421875 -1.953125 -0.421875q-1.1875 0 -2.1875 0.53125q-0.984375 0.53125 -1.71875 1.46875q-0.734375 0.953125 -1.171875 2.25q-0.4375 1.28125 -0.484375 2.71875q-0.046875 1.421875 0.234375 2.59375q0.28125 1.15625 0.90625 1.984375q0.609375 0.828125 1.5625 1.28125q0.96875 0.453125 2.3125 0.453125q0.296875 0 0.625 -0.046875q0.34375 -0.046875 0.671875 -0.125q0.328125 -0.09375 0.625 -0.21875q0.296875 -0.125 0.546875 -0.296875l-0.296875 -1.15625q-0.21875 0.109375 -0.46875 0.21875q-0.25 0.09375 -0.53125 0.15625q-0.28125 0.078125 -0.578125 0.125q-0.296875 0.03125 -0.5625 0.03125q-0.953125 0 -1.671875 -0.3125q-0.703125 -0.328125 -1.171875 -0.96875q-0.46875 -0.625 -0.6875 -1.5625q-0.21875 -0.9375 -0.171875 -2.15625q0.046875 -1.265625 0.359375 -2.3125q0.3125 -1.046875 0.875 -1.8125q0.546875 -0.734375 1.28125 -1.140625q0.734375 -0.40625 1.640625 -0.40625q0.84375 0 1.5 0.296875q0.65625 0.28125 1.09375 0.859375q0.4375 0.578125 0.640625 1.4375q0.203125 0.84375 0.171875 1.984375q0 0.703125 -0.078125 1.3125q-0.078125 0.59375 -0.25 1.03125q-0.15625 0.421875 -0.375 0.6875q-0.21875 0.25 -0.5 0.25q-0.109375 0 -0.21875 -0.03125q-0.109375 -0.03125 -0.1875 -0.125q-0.078125 -0.109375 -0.109375 -0.28125q-0.03125 -0.1875 -0.015625 -0.5l0.390625 -4.703125q-0.265625 -0.3125 -0.703125 -0.53125q-0.421875 -0.21875 -1.078125 -0.21875q-0.6875 0 -1.234375 0.296875q-0.546875 0.296875 -0.953125 0.84375q-0.40625 0.546875 -0.671875 1.328125q-0.25 0.765625 -0.34375 1.734375q-0.0625 0.765625 0.015625 1.390625q0.09375 0.609375 0.34375 1.046875q0.21875 0.46875 0.59375 0.71875q0.390625 0.234375 0.890625 0.234375q0.28125 0 0.546875 -0.09375q0.265625 -0.09375 0.484375 -0.25q0.171875 -0.125 0.328125 -0.28125q0.15625 -0.171875 0.28125 -0.359375q0.078125 0.203125 0.203125 0.375q0.125 0.15625 0.265625 0.28125q0.1875 0.171875 0.4375 0.25q0.25 0.078125 0.53125 0.078125q0.703125 0 1.1875 -0.40625q0.484375 -0.40625 0.796875 -1.046875q0.3125 -0.65625 0.453125 -1.453125q0.15625 -0.8125 0.1875 -1.625zm-6.15625 1.140625q0.0625 -0.6875 0.203125 -1.21875q0.15625 -0.546875 0.375 -0.921875q0.234375 -0.390625 0.5625 -0.578125q0.328125 -0.203125 0.765625 -0.203125q0.125 0 0.21875 0.015625q0.09375 0.015625 0.15625 0.046875l-0.34375 4.03125l0 0.109375q-0.09375 0.15625 -0.1875 0.28125q-0.09375 0.125 -0.203125 0.21875q-0.15625 0.140625 -0.34375 0.203125q-0.1875 0.0625 -0.390625 0.0625q-0.21875 0 -0.390625 -0.125q-0.171875 -0.140625 -0.265625 -0.421875q-0.09375 -0.25 -0.140625 -0.625q-0.046875 -0.390625 -0.015625 -0.875zm12.554947 1.09375l2.546875 5.140625l2.328125 0l0 -0.125l-2.828125 -5.546875q0.546875 -0.234375 0.984375 -0.578125q0.453125 -0.34375 0.78125 -0.78125q0.3125 -0.453125 0.484375 -1.0q0.1875 -0.5625 0.1875 -1.25q0 -0.984375 -0.359375 -1.71875q-0.34375 -0.75 -0.953125 -1.25q-0.625 -0.5 -1.5 -0.75q-0.859375 -0.25 -1.890625 -0.265625l-4.203125 0l0 13.265625l2.1875 0l0 -5.140625l2.234375 0zm-2.234375 -1.796875l0 -4.546875l2.015625 0q0.5625 0.015625 1.015625 0.15625q0.453125 0.140625 0.78125 0.421875q0.34375 0.28125 0.515625 0.71875q0.1875 0.4375 0.1875 1.0q0 0.515625 -0.171875 0.921875q-0.15625 0.390625 -0.453125 0.671875q-0.328125 0.3125 -0.796875 0.484375q-0.46875 0.171875 -1.046875 0.171875l-2.046875 0zm13.633072 7.125q1.4375 0 2.453125 -0.5625q1.015625 -0.578125 1.5 -1.28125l-1.15625 -1.125q-0.453125 0.578125 -1.15625 0.890625q-0.703125 0.3125 -1.515625 0.3125q-0.59375 0 -1.09375 -0.203125q-0.484375 -0.203125 -0.859375 -0.5625q-0.359375 -0.34375 -0.578125 -0.78125q-0.203125 -0.4375 -0.296875 -1.078125l0 -0.046875l6.828125 0l0 -0.9375q0 -1.0625 -0.28125 -1.953125q-0.28125 -0.890625 -0.84375 -1.546875q-0.546875 -0.625 -1.375 -0.984375q-0.8125 -0.359375 -1.890625 -0.359375q-0.953125 0 -1.796875 0.359375q-0.84375 0.359375 -1.46875 1.015625q-0.640625 0.671875 -1.015625 1.609375q-0.359375 0.9375 -0.359375 2.09375l0 0.375q0 1.0 0.34375 1.875q0.359375 0.875 1.0 1.515625q0.65625 0.640625 1.5625 1.015625q0.90625 0.359375 2.0 0.359375zm-0.265625 -8.453125q0.546875 0 0.953125 0.1875q0.421875 0.1875 0.6875 0.484375q0.28125 0.328125 0.4375 0.75q0.15625 0.421875 0.15625 0.84375l0 0.15625l-4.625 0q0.09375 -0.5625 0.296875 -1.015625q0.21875 -0.453125 0.53125 -0.765625q0.296875 -0.3125 0.6875 -0.46875q0.40625 -0.171875 0.875 -0.171875zm13.304947 5.59375q0 0.234375 -0.109375 0.4375q-0.109375 0.1875 -0.3125 0.359375q-0.265625 0.203125 -0.6875 0.328125q-0.421875 0.109375 -0.984375 0.109375q-0.421875 0 -0.828125 -0.078125q-0.40625 -0.09375 -0.734375 -0.296875q-0.328125 -0.1875 -0.546875 -0.5q-0.203125 -0.3125 -0.234375 -0.78125l-2.109375 0q0 0.609375 0.28125 1.203125q0.296875 0.59375 0.859375 1.046875q0.5625 0.46875 1.390625 0.75q0.828125 0.28125 1.890625 0.28125q0.953125 0 1.734375 -0.21875q0.78125 -0.21875 1.34375 -0.609375q0.5625 -0.390625 0.859375 -0.9375q0.3125 -0.546875 0.3125 -1.203125q0 -0.671875 -0.296875 -1.15625q-0.28125 -0.5 -0.8125 -0.859375q-0.53125 -0.34375 -1.28125 -0.578125q-0.75 -0.25 -1.640625 -0.40625q-0.65625 -0.109375 -1.078125 -0.25q-0.421875 -0.140625 -0.65625 -0.296875q-0.25 -0.15625 -0.359375 -0.359375q-0.09375 -0.203125 -0.09375 -0.46875q0 -0.234375 0.109375 -0.453125q0.125 -0.234375 0.359375 -0.390625q0.234375 -0.1875 0.59375 -0.296875q0.375 -0.109375 0.875 -0.109375q0.53125 0 0.9375 0.15625q0.40625 0.140625 0.65625 0.375q0.21875 0.203125 0.328125 0.453125q0.125 0.25 0.125 0.515625l2.171875 0q0 -0.65625 -0.296875 -1.234375q-0.28125 -0.578125 -0.828125 -1.0q-0.546875 -0.421875 -1.328125 -0.65625q-0.78125 -0.234375 -1.765625 -0.234375q-0.921875 0 -1.671875 0.234375q-0.75 0.234375 -1.28125 0.640625q-0.53125 0.40625 -0.828125 0.953125q-0.28125 0.546875 -0.28125 1.140625q0 0.625 0.28125 1.109375q0.28125 0.46875 0.78125 0.8125q0.515625 0.375 1.21875 0.625q0.703125 0.25 1.5625 0.421875q0.6875 0.125 1.140625 0.28125q0.453125 0.140625 0.734375 0.3125q0.265625 0.171875 0.375 0.375q0.125 0.203125 0.125 0.453125zm4.351822 -2.34375l0 0.1875q0 1.078125 0.296875 2.0q0.3125 0.90625 0.90625 1.578125q0.59375 0.671875 1.4375 1.0625q0.859375 0.375 1.953125 0.375q1.0625 0 1.90625 -0.375q0.859375 -0.390625 1.453125 -1.0625q0.578125 -0.671875 0.890625 -1.578125q0.3125 -0.921875 0.3125 -2.0l0 -0.1875q0 -1.078125 -0.3125 -1.984375q-0.3125 -0.921875 -0.890625 -1.59375q-0.59375 -0.6875 -1.453125 -1.0625q-0.84375 -0.375 -1.9375 -0.375q-1.078125 0 -1.921875 0.375q-0.84375 0.375 -1.4375 1.0625q-0.59375 0.671875 -0.90625 1.59375q-0.296875 0.90625 -0.296875 1.984375zm2.171875 0.1875l0 -0.1875q0 -0.65625 0.140625 -1.234375q0.140625 -0.59375 0.4375 -1.046875q0.296875 -0.453125 0.75 -0.703125q0.453125 -0.265625 1.0625 -0.265625q0.640625 0 1.078125 0.265625q0.453125 0.25 0.765625 0.703125q0.28125 0.453125 0.421875 1.046875q0.140625 0.578125 0.140625 1.234375l0 0.1875q0 0.671875 -0.140625 1.265625q-0.140625 0.578125 -0.421875 1.03125q-0.296875 0.4375 -0.75 0.703125q-0.453125 0.265625 -1.0625 0.265625q-0.640625 0 -1.09375 -0.265625q-0.453125 -0.265625 -0.75 -0.703125q-0.296875 -0.453125 -0.4375 -1.03125q-0.140625 -0.59375 -0.140625 -1.265625zm15.883087 4.828125l1.96875 0l0 -9.859375l-2.1875 0l0 6.984375q-0.125 0.265625 -0.3125 0.5q-0.171875 0.21875 -0.40625 0.375q-0.28125 0.1875 -0.65625 0.296875q-0.375 0.09375 -0.859375 0.09375q-0.453125 0 -0.796875 -0.109375q-0.328125 -0.125 -0.546875 -0.40625q-0.21875 -0.265625 -0.328125 -0.71875q-0.09375 -0.46875 -0.09375 -1.15625l0 -5.859375l-2.171875 0l0 5.84375q0 1.109375 0.25 1.90625q0.25 0.796875 0.6875 1.3125q0.453125 0.5 1.078125 0.75q0.640625 0.234375 1.40625 0.234375q0.890625 0 1.609375 -0.40625q0.71875 -0.421875 1.234375 -1.15625l0.125 1.375zm11.539307 -10.03125q-1.015625 0 -1.859375 0.46875q-0.84375 0.46875 -1.4375 1.296875l-0.015625 -0.21875l-0.09375 -1.375l-2.03125 0l0 9.859375l2.171875 0l0 -6.078125q0.171875 -0.4375 0.421875 -0.78125q0.265625 -0.34375 0.625 -0.5625q0.34375 -0.21875 0.78125 -0.328125q0.4375 -0.109375 0.984375 -0.109375q0.484375 0 0.96875 0.0625q0.484375 0.046875 0.984375 0.15625l0.3125 -2.15625q-0.28125 -0.09375 -0.78125 -0.15625q-0.5 -0.078125 -1.03125 -0.078125zm8.679962 8.46875q-0.6875 0 -1.140625 -0.265625q-0.453125 -0.28125 -0.71875 -0.734375q-0.265625 -0.4375 -0.390625 -1.015625q-0.109375 -0.578125 -0.109375 -1.1875l0 -0.3125q0 -0.59375 0.109375 -1.171875q0.125 -0.578125 0.40625 -1.015625q0.265625 -0.453125 0.703125 -0.71875q0.453125 -0.28125 1.140625 -0.28125q0.453125 0 0.828125 0.15625q0.390625 0.140625 0.671875 0.40625q0.28125 0.265625 0.421875 0.625q0.15625 0.359375 0.15625 0.75l2.046875 0q0.015625 -0.8125 -0.296875 -1.5q-0.296875 -0.6875 -0.84375 -1.171875q-0.546875 -0.484375 -1.3125 -0.75q-0.765625 -0.28125 -1.65625 -0.28125q-1.125 0 -1.984375 0.390625q-0.84375 0.390625 -1.421875 1.0625q-0.578125 0.6875 -0.859375 1.59375q-0.28125 0.890625 -0.28125 1.90625l0 0.3125q0 1.015625 0.28125 1.921875q0.296875 0.890625 0.875 1.5625q0.5625 0.6875 1.40625 1.078125q0.859375 0.390625 2.0 0.390625q0.8125 0 1.546875 -0.265625q0.75 -0.265625 1.328125 -0.734375q0.5625 -0.46875 0.890625 -1.09375q0.34375 -0.640625 0.328125 -1.359375l-2.046875 0q0 0.375 -0.171875 0.6875q-0.171875 0.3125 -0.453125 0.53125q-0.28125 0.234375 -0.671875 0.359375q-0.375 0.125 -0.78125 0.125zm11.508057 1.75q1.4375 0 2.453125 -0.5625q1.015625 -0.578125 1.5 -1.28125l-1.15625 -1.125q-0.453125 0.578125 -1.15625 0.890625q-0.703125 0.3125 -1.515625 0.3125q-0.59375 0 -1.09375 -0.203125q-0.484375 -0.203125 -0.859375 -0.5625q-0.359375 -0.34375 -0.578125 -0.78125q-0.203125 -0.4375 -0.296875 -1.078125l0 -0.046875l6.828125 0l0 -0.9375q0 -1.0625 -0.28125 -1.953125q-0.28125 -0.890625 -0.84375 -1.546875q-0.546875 -0.625 -1.375 -0.984375q-0.8125 -0.359375 -1.890625 -0.359375q-0.953125 0 -1.796875 0.359375q-0.84375 0.359375 -1.46875 1.015625q-0.640625 0.671875 -1.015625 1.609375q-0.359375 0.9375 -0.359375 2.09375l0 0.375q0 1.0 0.34375 1.875q0.359375 0.875 1.0 1.515625q0.65625 0.640625 1.5625 1.015625q0.90625 0.359375 2.0 0.359375zm-0.265625 -8.453125q0.546875 0 0.953125 0.1875q0.421875 0.1875 0.6875 0.484375q0.28125 0.328125 0.4375 0.75q0.15625 0.421875 0.15625 0.84375l0 0.15625l-4.625 0q0.09375 -0.5625 0.296875 -1.015625q0.21875 -0.453125 0.53125 -0.765625q0.296875 -0.3125 0.6875 -0.46875q0.40625 -0.171875 0.875 -0.171875zm13.304962 5.59375q0 0.234375 -0.109375 0.4375q-0.109375 0.1875 -0.3125 0.359375q-0.265625 0.203125 -0.6875 0.328125q-0.421875 0.109375 -0.984375 0.109375q-0.421875 0 -0.828125 -0.078125q-0.40625 -0.09375 -0.734375 -0.296875q-0.328125 -0.1875 -0.546875 -0.5q-0.203125 -0.3125 -0.234375 -0.78125l-2.109375 0q0 0.609375 0.28125 1.203125q0.296875 0.59375 0.859375 1.046875q0.5625 0.46875 1.390625 0.75q0.828125 0.28125 1.890625 0.28125q0.953125 0 1.734375 -0.21875q0.78125 -0.21875 1.34375 -0.609375q0.5625 -0.390625 0.859375 -0.9375q0.3125 -0.546875 0.3125 -1.203125q0 -0.671875 -0.296875 -1.15625q-0.28125 -0.5 -0.8125 -0.859375q-0.53125 -0.34375 -1.28125 -0.578125q-0.75 -0.25 -1.640625 -0.40625q-0.65625 -0.109375 -1.078125 -0.25q-0.421875 -0.140625 -0.65625 -0.296875q-0.25 -0.15625 -0.359375 -0.359375q-0.09375 -0.203125 -0.09375 -0.46875q0 -0.234375 0.109375 -0.453125q0.125 -0.234375 0.359375 -0.390625q0.234375 -0.1875 0.59375 -0.296875q0.375 -0.109375 0.875 -0.109375q0.53125 0 0.9375 0.15625q0.40625 0.140625 0.65625 0.375q0.21875 0.203125 0.328125 0.453125q0.125 0.25 0.125 0.515625l2.171875 0q0 -0.65625 -0.296875 -1.234375q-0.28125 -0.578125 -0.828125 -1.0q-0.546875 -0.421875 -1.328125 -0.65625q-0.78125 -0.234375 -1.765625 -0.234375q-0.921875 0 -1.671875 0.234375q-0.75 0.234375 -1.28125 0.640625q-0.53125 0.40625 -0.828125 0.953125q-0.28125 0.546875 -0.28125 1.140625q0 0.625 0.28125 1.109375q0.28125 0.46875 0.78125 0.8125q0.515625 0.375 1.21875 0.625q0.703125 0.25 1.5625 0.421875q0.6875 0.125 1.140625 0.28125q0.453125 0.140625 0.734375 0.3125q0.265625 0.171875 0.375 0.375q0.125 0.203125 0.125 0.453125z" fill-rule="nonzero"/><path fill="#ffffff" d="m13.078744 130.59317l142.92125 0l0 35.178482l-142.92125 0z" fill-rule="evenodd"/><path stroke="#999999" stroke-width="2.0" stroke-linejoin="round" stroke-linecap="butt" d="m13.078744 130.59317l142.92125 0l0 35.178482l-142.92125 0z" fill-rule="evenodd"/><path fill="#666666" d="m48.02271 151.68054q0 0.4375 -0.1875 0.78125q-0.1875 0.328125 -0.484375 0.5625q-0.328125 0.234375 -0.765625 0.359375q-0.421875 0.109375 -0.921875 0.109375q-0.59375 0 -1.09375 -0.140625q-0.5 -0.140625 -0.859375 -0.453125q-0.375 -0.28125 -0.59375 -0.734375q-0.203125 -0.453125 -0.25 -1.0625l-2.1875 0q0 0.953125 0.375 1.703125q0.390625 0.734375 1.03125 1.28125q0.703125 0.578125 1.640625 0.890625q0.953125 0.296875 1.9375 0.296875q0.921875 0 1.75 -0.234375q0.828125 -0.234375 1.453125 -0.6875q0.625 -0.453125 0.984375 -1.125q0.375 -0.671875 0.375 -1.5625q0 -0.953125 -0.421875 -1.6875q-0.421875 -0.734375 -1.125 -1.265625q-0.5625 -0.421875 -1.234375 -0.703125q-0.671875 -0.296875 -1.375 -0.5q-0.5625 -0.171875 -1.0625 -0.359375q-0.5 -0.1875 -0.890625 -0.453125q-0.390625 -0.25 -0.625 -0.59375q-0.21875 -0.34375 -0.234375 -0.796875q0 -0.421875 0.171875 -0.765625q0.1875 -0.34375 0.484375 -0.59375q0.3125 -0.234375 0.734375 -0.359375q0.421875 -0.140625 0.9375 -0.140625q0.5625 0 1.0 0.171875q0.453125 0.15625 0.765625 0.453125q0.296875 0.296875 0.453125 0.71875q0.171875 0.40625 0.21875 0.90625l2.171875 0q0 -0.890625 -0.359375 -1.625q-0.359375 -0.75 -0.984375 -1.296875q-0.609375 -0.53125 -1.453125 -0.828125q-0.828125 -0.296875 -1.796875 -0.296875q-0.90625 0 -1.734375 0.265625q-0.828125 0.25 -1.4375 0.71875q-0.625 0.484375 -0.984375 1.171875q-0.359375 0.671875 -0.359375 1.515625q0 0.78125 0.3125 1.40625q0.3125 0.625 0.859375 1.109375q0.5625 0.484375 1.34375 0.875q0.796875 0.390625 1.734375 0.65625q0.609375 0.171875 1.09375 0.390625q0.5 0.203125 0.875 0.46875q0.34375 0.28125 0.53125 0.640625q0.1875 0.359375 0.1875 0.8125zm7.726822 -0.875l3.140625 4.296875l2.703125 0l-4.390625 -5.75l3.828125 -4.109375l-2.625 0l-2.9375 3.09375l-0.90625 1.015625l0 -8.25l-2.171875 0l0 14.0l2.171875 0l0 -3.171875l1.1875 -1.125zm8.304951 -5.5625l0 1.8125l3.046875 0l0 6.25l-3.046875 0l0 1.796875l8.125 0l0 -1.796875l-2.890625 0l0 -8.0625l-5.234375 0zm2.84375 -2.546875q0 0.34375 0.15625 0.609375q0.171875 0.25 0.5 0.359375q0.328125 0.09375 0.59375 0.046875q0.265625 -0.0625 0.453125 -0.234375q0.375 -0.09375 0.578125 -0.390625q0.203125 -0.296875 0.140625 -0.703125q-0.046875 -0.390625 -0.359375 -0.640625q-0.296875 -0.25 -0.796875 -0.25q-0.28125 0 -0.515625 0.09375q-0.234375 0.078125 -0.40625 0.234375q-0.171875 0.15625 -0.265625 0.390625q-0.078125 0.21875 -0.078125 0.484375zm7.851822 12.40625l2.1875 0l0 -7.03125q0.140625 -0.25 0.328125 -0.453125q0.203125 -0.21875 0.421875 -0.359375q0.28125 -0.1875 0.625 -0.296875q0.34375 -0.109375 0.75 -0.109375q0.46875 0 0.84375 0.109375q0.375 0.109375 0.640625 0.359375q0.265625 0.234375 0.40625 0.65625q0.140625 0.40625 0.140625 1.015625l0 6.109375l2.171875 0l0 -6.15625q0 -1.03125 -0.25 -1.765625q-0.25 -0.734375 -0.6875 -1.203125q-0.453125 -0.46875 -1.078125 -0.6875q-0.625 -0.21875 -1.390625 -0.21875q-0.5625 0 -1.09375 0.171875q-0.515625 0.15625 -0.953125 0.453125q-0.265625 0.1875 -0.515625 0.4375q-0.234375 0.234375 -0.4375 0.515625l-0.140625 -1.40625l-1.96875 0l0 9.859375zm13.914322 -1.3125q0 0.625 0.40625 1.0625q0.421875 0.4375 1.171875 0.4375q0.734375 0 1.15625 -0.421875q0.421875 -0.4375 0.421875 -1.078125q0 -0.640625 -0.421875 -1.078125q-0.40625 -0.4375 -1.15625 -0.4375q-0.765625 0 -1.171875 0.453125q-0.40625 0.4375 -0.40625 1.0625zm8.976822 -8.546875l0 1.8125l3.046875 0l0 6.25l-3.046875 0l0 1.796875l8.125 0l0 -1.796875l-2.890625 0l0 -8.0625l-5.234375 0zm2.84375 -2.546875q0 0.34375 0.15625 0.609375q0.171875 0.25 0.5 0.359375q0.328125 0.09375 0.59375 0.046875q0.265625 -0.0625 0.453125 -0.234375q0.375 -0.09375 0.578125 -0.390625q0.203125 -0.296875 0.140625 -0.703125q-0.046875 -0.390625 -0.359375 -0.640625q-0.296875 -0.25 -0.796875 -0.25q-0.28125 0 -0.515625 0.09375q-0.234375 0.078125 -0.40625 0.234375q-0.171875 0.15625 -0.265625 0.390625q-0.078125 0.21875 -0.078125 0.484375zm7.851822 12.40625l2.1875 0l0 -7.03125q0.140625 -0.25 0.328125 -0.453125q0.203125 -0.21875 0.421875 -0.359375q0.28125 -0.1875 0.625 -0.296875q0.34375 -0.109375 0.75 -0.109375q0.46875 0 0.84375 0.109375q0.375 0.109375 0.640625 0.359375q0.265625 0.234375 0.40625 0.65625q0.140625 0.40625 0.140625 1.015625l0 6.109375l2.171875 0l0 -6.15625q0 -1.03125 -0.25 -1.765625q-0.25 -0.734375 -0.6875 -1.203125q-0.453125 -0.46875 -1.078125 -0.6875q-0.625 -0.21875 -1.390625 -0.21875q-0.5625 0 -1.09375 0.171875q-0.515625 0.15625 -0.953125 0.453125q-0.265625 0.1875 -0.515625 0.4375q-0.234375 0.234375 -0.4375 0.515625l-0.140625 -1.40625l-1.96875 0l0 9.859375zm11.695572 -9.859375l0 1.8125l3.046875 0l0 6.25l-3.046875 0l0 1.796875l8.125008 0l0 -1.796875l-2.8906326 0l0 -8.0625l-5.234375 0zm2.84375 -2.546875q0 0.34375 0.15625 0.609375q0.171875 0.25 0.5 0.359375q0.328125 0.09375 0.59375 0.046875q0.265625 -0.0625 0.453125 -0.234375q0.375 -0.09375 0.578125 -0.390625q0.203125 -0.296875 0.140625 -0.703125q-0.046875 -0.390625 -0.359375 -0.640625q-0.296875 -0.25 -0.796875 -0.25q-0.28125 0 -0.515625 0.09375q-0.234375 0.078125 -0.40625 0.234375q-0.171875 0.15625 -0.265625 0.390625q-0.078125 0.21875 -0.078125 0.484375z" fill-rule="nonzero"/><path fill="#ffffff" d="m13.07874 204.40158l142.92126 0l0 35.178467l-142.92126 0z" fill-rule="evenodd"/><path stroke="#999999" stroke-width="2.0" stroke-linejoin="round" stroke-linecap="butt" d="m13.07874 204.40158l142.92126 0l0 35.178467l-142.92126 0z" fill-rule="evenodd"/><path fill="#666666" d="m38.87401 224.83269l-2.203125 0q-0.046875 0.59375 -0.234375 1.0625q-0.171875 0.46875 -0.484375 0.78125q-0.296875 0.3125 -0.734375 0.484375q-0.4375 0.15625 -1.015625 0.15625q-0.46875 0 -0.84375 -0.125q-0.359375 -0.140625 -0.640625 -0.390625q-0.28125 -0.234375 -0.484375 -0.5625q-0.1875 -0.328125 -0.3124981 -0.734375q-0.15625 -0.484375 -0.234375 -1.0625q-0.078125 -0.59375 -0.078125 -1.25l0 -1.828125q0 -0.546875 0.046875 -1.0625q0.0625 -0.515625 0.1875 -0.96875q0.15625 -0.515625 0.3906231 -0.9375q0.25 -0.421875 0.609375 -0.6875q0.265625 -0.21875 0.609375 -0.328125q0.34375 -0.125 0.765625 -0.125q0.609375 0 1.046875 0.171875q0.4375 0.171875 0.734375 0.515625q0.296875 0.34375 0.46875 0.828125q0.171875 0.46875 0.21875 1.0625l2.1875 0q-0.09375 -1.0 -0.4375 -1.8125q-0.34375 -0.8125 -0.9375 -1.375q-0.578125 -0.5625 -1.40625 -0.875q-0.828125 -0.3125 -1.875 -0.3125q-0.78125 0 -1.4375 0.21875q-0.640625 0.203125 -1.1718731 0.578125q-0.5625 0.40625 -1.0 0.984375q-0.4375 0.578125 -0.703125 1.28125q-0.265625 0.640625 -0.390625 1.359375q-0.125 0.71875 -0.125 1.5l0 1.8125q0 0.8125 0.125 1.5625q0.140625 0.734375 0.40625 1.375q0.265625 0.65625 0.640625 1.203125q0.390625 0.53125 0.921875 0.90625q0.5312481 0.421875 1.2187481 0.640625q0.6875 0.21875 1.5 0.21875q1.015625 0 1.828125 -0.296875q0.828125 -0.3125 1.4375 -0.875q0.578125 -0.5625 0.9375 -1.34375q0.375 -0.78125 0.46875 -1.75zm1.8986969 -0.9375l0 0.1875q0 1.078125 0.296875 2.0q0.3125 0.90625 0.90625 1.578125q0.59375 0.671875 1.4375 1.0625q0.859375 0.375 1.953125 0.375q1.0625 0 1.90625 -0.375q0.859375 -0.390625 1.453125 -1.0625q0.578125 -0.671875 0.890625 -1.578125q0.3125 -0.921875 0.3125 -2.0l0 -0.1875q0 -1.078125 -0.3125 -1.984375q-0.3125 -0.921875 -0.890625 -1.59375q-0.59375 -0.6875 -1.453125 -1.0625q-0.84375 -0.375 -1.9375 -0.375q-1.078125 0 -1.921875 0.375q-0.84375 0.375 -1.4375 1.0625q-0.59375 0.671875 -0.90625 1.59375q-0.296875 0.90625 -0.296875 1.984375zm2.171875 0.1875l0 -0.1875q0 -0.65625 0.140625 -1.234375q0.140625 -0.59375 0.4375 -1.046875q0.296875 -0.453125 0.75 -0.703125q0.453125 -0.265625 1.0625 -0.265625q0.640625 0 1.078125 0.265625q0.453125 0.25 0.765625 0.703125q0.28125 0.453125 0.421875 1.046875q0.140625 0.578125 0.140625 1.234375l0 0.1875q0 0.671875 -0.140625 1.265625q-0.140625 0.578125 -0.421875 1.03125q-0.296875 0.4375 -0.75 0.703125q-0.453125 0.265625 -1.0625 0.265625q-0.640625 0 -1.09375 -0.265625q-0.453125 -0.265625 -0.75 -0.703125q-0.296875 -0.453125 -0.4375 -1.03125q-0.140625 -0.59375 -0.140625 -1.265625zm9.414322 4.828125l2.1875 0l0 -7.03125q0.140625 -0.25 0.328125 -0.453125q0.203125 -0.21875 0.421875 -0.359375q0.28125 -0.1875 0.625 -0.296875q0.34375 -0.109375 0.75 -0.109375q0.46875 0 0.84375 0.109375q0.375 0.109375 0.640625 0.359375q0.265625 0.234375 0.40625 0.65625q0.140625 0.40625 0.140625 1.015625l0 6.109375l2.171875 0l0 -6.15625q0 -1.03125 -0.25 -1.765625q-0.25 -0.734375 -0.6875 -1.203125q-0.453125 -0.46875 -1.078125 -0.6875q-0.625 -0.21875 -1.390625 -0.21875q-0.5625 0 -1.09375 0.171875q-0.515625 0.15625 -0.953125 0.453125q-0.265625 0.1875 -0.515625 0.4375q-0.234375 0.234375 -0.4375 0.515625l-0.140625 -1.40625l-1.96875 0l0 9.859375zm13.679947 0l2.1875 0l0 -8.21875l3.65625 0l0 -1.640625l-3.65625 0l0 -0.59375q0 -0.53125 0.125 -0.921875q0.140625 -0.390625 0.40625 -0.65625q0.28125 -0.28125 0.71875 -0.421875q0.4375 -0.140625 1.046875 -0.140625q0.59375 0 1.046875 0.078125q0.46875 0.0625 0.828125 0.15625l0.171875 -1.734375q-0.28125 -0.046875 -0.546875 -0.09375q-0.25 -0.0625 -0.515625 -0.09375q-0.296875 -0.046875 -0.625 -0.078125q-0.328125 -0.03125 -0.65625 -0.03125q-0.96875 0 -1.734375 0.25q-0.765625 0.25 -1.3125 0.75q-0.546875 0.5 -0.84375 1.234375q-0.296875 0.734375 -0.296875 1.703125l0 0.59375l-2.640625 0l0 1.640625l2.640625 0l0 8.21875zm9.211197 -9.859375l0 1.8125l3.0468826 0l0 6.25l-3.0468826 0l0 1.796875l8.125008 0l0 -1.796875l-2.890625 0l0 -8.0625l-5.2343826 0zm2.8437576 -2.546875q0 0.34375 0.15625 0.609375q0.171875 0.25 0.5 0.359375q0.328125 0.09375 0.59375 0.046875q0.265625 -0.0625 0.453125 -0.234375q0.375 -0.09375 0.578125 -0.390625q0.203125 -0.296875 0.140625 -0.703125q-0.046875 -0.390625 -0.359375 -0.640625q-0.296875 -0.25 -0.796875 -0.25q-0.28125 0 -0.515625 0.09375q-0.234375 0.078125 -0.40625 0.234375q-0.171875 0.15625 -0.265625 0.390625q-0.078125 0.21875 -0.078125 0.484375zm7.570572 7.40625l0 0.1875q0 1.0625 0.28125 1.984375q0.28125 0.921875 0.796875 1.578125q0.515625 0.671875 1.234375 1.0625q0.734375 0.375 1.640625 0.375q0.5 0 0.921875 -0.109375q0.4375 -0.109375 0.796875 -0.3125q0.234375 -0.125 0.4375 -0.296875q0.203125 -0.171875 0.40625 -0.375l0 0.6875q0 0.5625 -0.171875 1.0q-0.15625 0.4375 -0.453125 0.734375q-0.3125 0.3125 -0.765625 0.46875q-0.453125 0.171875 -1.03125 0.171875q-0.34375 0 -0.671875 -0.078125q-0.3125 -0.0625 -0.640625 -0.203125q-0.3125 -0.15625 -0.625 -0.390625q-0.296875 -0.234375 -0.5625 -0.546875l-1.03125 1.328125q0.328125 0.4375 0.78125 0.734375q0.453125 0.3125 0.953125 0.5q0.5 0.203125 1.0 0.28125q0.5 0.09375 0.921875 0.09375q1.0 0 1.8125 -0.28125q0.828125 -0.265625 1.421875 -0.796875q0.59375 -0.53125 0.90625 -1.3125q0.328125 -0.765625 0.328125 -1.75l0 -9.59375l-1.984375 0l-0.078125 1.0q-0.1875 -0.21875 -0.40625 -0.40625q-0.203125 -0.1875 -0.4375 -0.328125q-0.359375 -0.21875 -0.8125 -0.328125q-0.453125 -0.109375 -1.0 -0.109375q-0.90625 0 -1.640625 0.375q-0.734375 0.359375 -1.25 1.015625q-0.53125 0.671875 -0.8125 1.59375q-0.265625 0.921875 -0.265625 2.046875zm2.1875 0.1875l0 -0.1875q0 -0.671875 0.140625 -1.25q0.140625 -0.59375 0.421875 -1.03125q0.28125 -0.453125 0.71875 -0.703125q0.4375 -0.265625 1.046875 -0.265625q0.359375 0 0.640625 0.078125q0.296875 0.078125 0.53125 0.203125q0.265625 0.15625 0.46875 0.375q0.203125 0.21875 0.359375 0.5l0 4.3125q-0.15625 0.265625 -0.34375 0.484375q-0.1875 0.21875 -0.4375 0.375q-0.25 0.140625 -0.5625 0.234375q-0.296875 0.078125 -0.671875 0.078125q-0.59375 0 -1.03125 -0.25q-0.4375 -0.25 -0.71875 -0.703125q-0.296875 -0.421875 -0.4375 -1.0q-0.125 -0.59375 -0.125 -1.25zm12.008072 3.5q0 0.625 0.40625 1.0625q0.421875 0.4375 1.171875 0.4375q0.734375 0 1.15625 -0.421875q0.421875 -0.4375 0.421875 -1.078125q0 -0.640625 -0.421875 -1.078125q-0.40625 -0.4375 -1.15625 -0.4375q-0.765625 0 -1.171875 0.453125q-0.40625 0.4375 -0.40625 1.0625zm8.976822 -8.546875l0 1.8125l3.046875 0l0 6.25l-3.046875 0l0 1.796875l8.125 0l0 -1.796875l-2.890625 0l0 -8.0625l-5.234375 0zm2.84375 -2.546875q0 0.34375 0.15625 0.609375q0.171875 0.25 0.5 0.359375q0.328125 0.09375 0.59375 0.046875q0.265625 -0.0625 0.453125 -0.234375q0.375 -0.09375 0.578125 -0.390625q0.203125 -0.296875 0.140625 -0.703125q-0.046875 -0.390625 -0.359375 -0.640625q-0.296875 -0.25 -0.796875 -0.25q-0.28125 0 -0.515625 0.09375q-0.234375 0.078125 -0.40625 0.234375q-0.171875 0.15625 -0.265625 0.390625q-0.078125 0.21875 -0.078125 0.484375zm7.851822 12.40625l2.1875 0l0 -7.03125q0.140625 -0.25 0.328125 -0.453125q0.203125 -0.21875 0.421875 -0.359375q0.28125 -0.1875 0.625 -0.296875q0.34375 -0.109375 0.75 -0.109375q0.46875 0 0.84375 0.109375q0.375 0.109375 0.640625 0.359375q0.265625 0.234375 0.40625 0.65625q0.140625 0.40625 0.140625 1.015625l0 6.109375l2.1718674 0l0 -6.15625q0 -1.03125 -0.24999237 -1.765625q-0.25 -0.734375 -0.6875 -1.203125q-0.453125 -0.46875 -1.078125 -0.6875q-0.625 -0.21875 -1.390625 -0.21875q-0.5625 0 -1.09375 0.171875q-0.515625 0.15625 -0.953125 0.453125q-0.265625 0.1875 -0.515625 0.4375q-0.234375 0.234375 -0.4375 0.515625l-0.140625 -1.40625l-1.96875 0l0 9.859375zm15.492439 -1.5625q-0.6875 0 -1.140625 -0.265625q-0.453125 -0.28125 -0.71875 -0.734375q-0.265625 -0.4375 -0.390625 -1.015625q-0.109375 -0.578125 -0.109375 -1.1875l0 -0.3125q0 -0.59375 0.109375 -1.171875q0.125 -0.578125 0.40625 -1.015625q0.265625 -0.453125 0.703125 -0.71875q0.453125 -0.28125 1.140625 -0.28125q0.453125 0 0.828125 0.15625q0.390625 0.140625 0.671875 0.40625q0.28125 0.265625 0.421875 0.625q0.15625 0.359375 0.15625 0.75l2.046875 0q0.015625 -0.8125 -0.296875 -1.5q-0.296875 -0.6875 -0.84375 -1.171875q-0.546875 -0.484375 -1.3125 -0.75q-0.765625 -0.28125 -1.65625 -0.28125q-1.125 0 -1.984375 0.390625q-0.84375 0.390625 -1.421875 1.0625q-0.578125 0.6875 -0.859375 1.59375q-0.28125 0.890625 -0.28125 1.90625l0 0.3125q0 1.015625 0.28125 1.921875q0.296875 0.890625 0.875 1.5625q0.5625 0.6875 1.40625 1.078125q0.859375 0.390625 2.0 0.390625q0.8125 0 1.546875 -0.265625q0.75 -0.265625 1.328125 -0.734375q0.5625 -0.46875 0.890625 -1.09375q0.34375 -0.640625 0.328125 -1.359375l-2.046875 0q0 0.375 -0.171875 0.6875q-0.171875 0.3125 -0.453125 0.53125q-0.28125 0.234375 -0.671875 0.359375q-0.375 0.125 -0.78125 0.125z" fill-rule="nonzero"/><path fill="#000000" fill-opacity="0.0" d="m204.56693 88.507835l0 0c0 -7.4442215 6.0347443 -13.478966 13.478973 -13.478966l175.2468 0c3.574829 0 7.0032654 1.420105 9.531067 3.9478989c2.5278015 2.527794 3.9479065 5.9562225 3.9479065 9.531067l0 295.0263c0 7.4442444 -6.0347595 13.478973 -13.478973 13.478973l-175.2468 0l0 0c-7.444229 0 -13.478973 -6.034729 -13.478973 -13.478973z" fill-rule="evenodd"/><path stroke="#cccccc" stroke-width="2.0" stroke-linejoin="round" stroke-linecap="butt" d="m204.56693 88.507835l0 0c0 -7.4442215 6.0347443 -13.478966 13.478973 -13.478966l175.2468 0c3.574829 0 7.0032654 1.420105 9.531067 3.9478989c2.5278015 2.527794 3.9479065 5.9562225 3.9479065 9.531067l0 295.0263c0 7.4442444 -6.0347595 13.478973 -13.478973 13.478973l-175.2468 0l0 0c-7.444229 0 -13.478973 -6.034729 -13.478973 -13.478973z" fill-rule="evenodd"/><path fill="#999999" d="m225.78041 102.474846q0 0.4375 -0.1875 0.78125q-0.1875 0.328125 -0.484375 0.5625q-0.328125 0.234375 -0.765625 0.359375q-0.421875 0.109375 -0.921875 0.109375q-0.59375 0 -1.09375 -0.140625q-0.5 -0.140625 -0.859375 -0.453125q-0.375 -0.28125 -0.59375 -0.734375q-0.203125 -0.453125 -0.25 -1.0625l-2.1875 0q0 0.953125 0.375 1.703125q0.390625 0.734375 1.03125 1.28125q0.703125 0.578125 1.640625 0.890625q0.953125 0.296875 1.9375 0.296875q0.921875 0 1.75 -0.234375q0.828125 -0.234375 1.453125 -0.6875q0.625 -0.453125 0.984375 -1.125q0.375 -0.671875 0.375 -1.5625q0 -0.953125 -0.421875 -1.6875q-0.421875 -0.734375 -1.125 -1.265625q-0.5625 -0.421875 -1.234375 -0.703125q-0.671875 -0.296875 -1.375 -0.5q-0.5625 -0.171875 -1.0625 -0.359375q-0.5 -0.1875 -0.890625 -0.453125q-0.390625 -0.25 -0.625 -0.59375q-0.21875 -0.34375 -0.234375 -0.796875q0 -0.421875 0.171875 -0.765625q0.1875 -0.34375 0.484375 -0.59375q0.3125 -0.234375 0.734375 -0.359375q0.421875 -0.140625 0.9375 -0.140625q0.5625 0 1.0 0.171875q0.453125 0.15625 0.765625 0.453125q0.296875 0.296875 0.453125 0.71875q0.171875 0.40625 0.21875 0.90625l2.171875 0q0 -0.890625 -0.359375 -1.625q-0.359375 -0.75 -0.984375 -1.296875q-0.609375 -0.53125 -1.453125 -0.828125q-0.828125 -0.296875 -1.796875 -0.296875q-0.90625 0 -1.734375 0.265625q-0.828125 0.25 -1.4375 0.71875q-0.625 0.484375 -0.984375 1.171875q-0.359375 0.671875 -0.359375 1.515625q0 0.78125 0.3125 1.40625q0.3125 0.625 0.859375 1.109375q0.5625 0.484375 1.34375 0.875q0.796875 0.390625 1.734375 0.65625q0.609375 0.171875 1.09375 0.390625q0.5 0.203125 0.875 0.46875q0.34375 0.28125 0.53125 0.640625q0.1875 0.359375 0.1875 0.8125zm8.633072 1.859375q-0.6875 0 -1.140625 -0.265625q-0.453125 -0.28125 -0.71875 -0.734375q-0.265625 -0.4375 -0.390625 -1.015625q-0.109375 -0.578125 -0.109375 -1.1875l0 -0.3125q0 -0.59375 0.109375 -1.171875q0.125 -0.578125 0.40625 -1.015625q0.265625 -0.453125 0.703125 -0.71875q0.453125 -0.28125 1.140625 -0.28125q0.453125 0 0.828125 0.15625q0.390625 0.140625 0.671875 0.40625q0.28125 0.265625 0.421875 0.625q0.15625 0.359375 0.15625 0.75l2.046875 0q0.015625 -0.8125 -0.296875 -1.5q-0.296875 -0.6875 -0.84375 -1.171875q-0.546875 -0.484375 -1.3125 -0.75q-0.765625 -0.28125 -1.65625 -0.28125q-1.125 0 -1.984375 0.390625q-0.84375 0.390625 -1.421875 1.0625q-0.578125 0.6875 -0.859375 1.59375q-0.28125 0.890625 -0.28125 1.90625l0 0.3125q0 1.015625 0.28125 1.921875q0.296875 0.890625 0.875 1.5625q0.5625 0.6875 1.40625 1.078125q0.859375 0.390625 2.0 0.390625q0.8125 0 1.546875 -0.265625q0.75 -0.265625 1.328125 -0.734375q0.5625 -0.46875 0.890625 -1.09375q0.34375 -0.640625 0.328125 -1.359375l-2.046875 0q0 0.375 -0.171875 0.6875q-0.171875 0.3125 -0.453125 0.53125q-0.28125 0.234375 -0.671875 0.359375q-0.375 0.125 -0.78125 0.125zm13.711197 -8.46875q-1.015625 0 -1.859375 0.46875q-0.84375 0.46875 -1.4375 1.296875l-0.015625 -0.21875l-0.09375 -1.375l-2.03125 0l0 9.859375l2.171875 0l0 -6.078125q0.171875 -0.4375 0.421875 -0.78125q0.265625 -0.34375 0.625 -0.5625q0.34375 -0.21875 0.78125 -0.328125q0.4375 -0.109375 0.984375 -0.109375q0.484375 0 0.96875 0.0625q0.484375 0.046875 0.984375 0.15625l0.3125 -2.15625q-0.28125 -0.09375 -0.78125 -0.15625q-0.5 -0.078125 -1.03125 -0.078125zm4.883072 0.171875l0 1.8125l3.046875 0l0 6.25l-3.046875 0l0 1.796875l8.125 0l0 -1.796875l-2.890625 0l0 -8.0625l-5.234375 0zm2.84375 -2.546875q0 0.34375 0.15625 0.609375q0.171875 0.25 0.5 0.359375q0.328125 0.09375 0.59375 0.046875q0.265625 -0.0625 0.453125 -0.234375q0.375 -0.09375 0.578125 -0.390625q0.203125 -0.296875 0.140625 -0.703125q-0.046875 -0.390625 -0.359375 -0.640625q-0.296875 -0.25 -0.796875 -0.25q-0.28125 0 -0.515625 0.09375q-0.234375 0.078125 -0.40625 0.234375q-0.171875 0.15625 -0.265625 0.390625q-0.078125 0.21875 -0.078125 0.484375zm7.8830566 16.203125l2.171875 0l0 -4.6875q0.171875 0.1875 0.375 0.359375q0.203125 0.15625 0.421875 0.28125q0.359375 0.21875 0.796875 0.328125q0.453125 0.109375 0.984375 0.109375q0.921875 0 1.640625 -0.375q0.71875 -0.390625 1.21875 -1.0625q0.484375 -0.671875 0.734375 -1.59375q0.25 -0.921875 0.25 -1.984375l0 -0.1875q0 -1.109375 -0.25 -2.03125q-0.25 -0.9375 -0.734375 -1.59375q-0.5 -0.671875 -1.21875 -1.03125q-0.71875 -0.359375 -1.671875 -0.359375q-0.484375 0 -0.921875 0.109375q-0.421875 0.09375 -0.765625 0.28125q-0.28125 0.15625 -0.515625 0.359375q-0.234375 0.1875 -0.4375 0.4375l-0.078125 -1.015625l-2.0 0l0 13.65625zm6.421875 -8.8125l0 0.1875q0 0.65625 -0.125 1.25q-0.125 0.578125 -0.40625 1.03125q-0.28125 0.453125 -0.71875 0.71875q-0.421875 0.25 -1.03125 0.25q-0.375 0 -0.6875 -0.078125q-0.3125 -0.09375 -0.546875 -0.234375q-0.25 -0.15625 -0.4375 -0.359375q-0.171875 -0.21875 -0.296875 -0.46875l0 -4.390625q0.140625 -0.265625 0.328125 -0.484375q0.203125 -0.21875 0.46875 -0.375q0.234375 -0.125 0.515625 -0.203125q0.296875 -0.078125 0.640625 -0.078125q0.609375 0 1.046875 0.265625q0.4375 0.25 0.71875 0.6875q0.265625 0.4375 0.390625 1.03125q0.140625 0.578125 0.140625 1.25zm9.117462 -7.25l-2.1875 0l0 2.40625l-2.375 0l0 1.640625l2.375 0l0 4.84375q0 0.9375 0.25 1.625q0.25 0.671875 0.703125 1.09375q0.4375 0.4375 1.0625 0.640625q0.625 0.203125 1.375 0.203125q0.40625 0 0.8125 -0.046875q0.421875 -0.03125 0.8125 -0.109375q0.375 -0.0625 0.703125 -0.171875q0.34375 -0.109375 0.578125 -0.25l-0.234375 -1.5q-0.171875 0.03125 -0.40625 0.078125q-0.234375 0.046875 -0.515625 0.09375q-0.28125 0.046875 -0.578125 0.078125q-0.296875 0.015625 -0.59375 0.015625q-0.390625 0 -0.71875 -0.078125q-0.328125 -0.09375 -0.5625 -0.3125q-0.234375 -0.21875 -0.375 -0.578125q-0.125 -0.375 -0.125 -0.921875l0 -4.703125l3.703125 0l0 -1.640625l-3.703125 0l0 -2.40625zm13.273682 9.59375q0 0.234375 -0.109375 0.4375q-0.109375 0.1875 -0.3125 0.359375q-0.265625 0.203125 -0.6875 0.328125q-0.421875 0.109375 -0.984375 0.109375q-0.421875 0 -0.828125 -0.078125q-0.40625 -0.09375 -0.734375 -0.296875q-0.328125 -0.1875 -0.546875 -0.5q-0.203125 -0.3125 -0.234375 -0.78125l-2.109375 0q0 0.609375 0.28125 1.203125q0.296875 0.59375 0.859375 1.046875q0.5625 0.46875 1.390625 0.75q0.828125 0.28125 1.890625 0.28125q0.953125 0 1.734375 -0.21875q0.78125 -0.21875 1.34375 -0.609375q0.5625 -0.390625 0.859375 -0.9375q0.3125 -0.546875 0.3125 -1.203125q0 -0.671875 -0.296875 -1.15625q-0.28125 -0.5 -0.8125 -0.859375q-0.53125 -0.34375 -1.28125 -0.578125q-0.75 -0.25 -1.640625 -0.40625q-0.65625 -0.109375 -1.078125 -0.25q-0.421875 -0.140625 -0.65625 -0.296875q-0.25 -0.15625 -0.359375 -0.359375q-0.09375 -0.203125 -0.09375 -0.46875q0 -0.234375 0.109375 -0.453125q0.125 -0.234375 0.359375 -0.390625q0.234375 -0.1875 0.59375 -0.296875q0.375 -0.109375 0.875 -0.109375q0.53125 0 0.9375 0.15625q0.40625 0.140625 0.65625 0.375q0.21875 0.203125 0.328125 0.453125q0.125 0.25 0.125 0.515625l2.171875 0q0 -0.65625 -0.296875 -1.234375q-0.28125 -0.578125 -0.828125 -1.0q-0.546875 -0.421875 -1.328125 -0.65625q-0.78125 -0.234375 -1.765625 -0.234375q-0.921875 0 -1.671875 0.234375q-0.75 0.234375 -1.28125 0.640625q-0.53125 0.40625 -0.828125 0.953125q-0.28125 0.546875 -0.28125 1.140625q0 0.625 0.28125 1.109375q0.28125 0.46875 0.78125 0.8125q0.515625 0.375 1.21875 0.625q0.703125 0.25 1.5625 0.421875q0.6875 0.125 1.140625 0.28125q0.453125 0.140625 0.734375 0.3125q0.265625 0.171875 0.375 0.375q0.125 0.203125 0.125 0.453125z" fill-rule="nonzero"/><path fill="#00007c" fill-opacity="0.8" d="m236.11023 204.40158l138.8819 0l0 35.178467l-138.8819 0z" fill-rule="evenodd"/><path fill="#d9d9d9" d="m255.27644 227.34831q-0.6875 0 -1.140625 -0.265625q-0.453125 -0.28125 -0.71875 -0.734375q-0.265625 -0.4375 -0.390625 -1.015625q-0.109375 -0.578125 -0.109375 -1.1875l0 -0.3125q0 -0.59375 0.109375 -1.171875q0.125 -0.578125 0.40625 -1.015625q0.265625 -0.453125 0.703125 -0.71875q0.453125 -0.28125 1.140625 -0.28125q0.453125 0 0.82814026 0.15625q0.390625 0.140625 0.671875 0.40625q0.28125 0.265625 0.421875 0.625q0.15625 0.359375 0.15625 0.75l2.046875 0q0.015625 -0.8125 -0.296875 -1.5q-0.296875 -0.6875 -0.84375 -1.171875q-0.546875 -0.484375 -1.3125 -0.75q-0.765625 -0.28125 -1.6562653 -0.28125q-1.125 0 -1.984375 0.390625q-0.84375 0.390625 -1.421875 1.0625q-0.578125 0.6875 -0.859375 1.59375q-0.28125 0.890625 -0.28125 1.90625l0 0.3125q0 1.015625 0.28125 1.921875q0.296875 0.890625 0.875 1.5625q0.5625 0.6875 1.40625 1.078125q0.859375 0.390625 2.0 0.390625q0.81251526 0 1.5468903 -0.265625q0.75 -0.265625 1.328125 -0.734375q0.5625 -0.46875 0.890625 -1.09375q0.34375 -0.640625 0.328125 -1.359375l-2.046875 0q0 0.375 -0.171875 0.6875q-0.171875 0.3125 -0.453125 0.53125q-0.28125 0.234375 -0.671875 0.359375q-0.37501526 0.125 -0.78126526 0.125zm6.508072 -3.453125l0 0.1875q0 1.078125 0.296875 2.0q0.3125 0.90625 0.90625 1.578125q0.59375 0.671875 1.4375 1.0625q0.859375 0.375 1.953125 0.375q1.0625 0 1.90625 -0.375q0.859375 -0.390625 1.453125 -1.0625q0.578125 -0.671875 0.890625 -1.578125q0.3125 -0.921875 0.3125 -2.0l0 -0.1875q0 -1.078125 -0.3125 -1.984375q-0.3125 -0.921875 -0.890625 -1.59375q-0.59375 -0.6875 -1.453125 -1.0625q-0.84375 -0.375 -1.9375 -0.375q-1.078125 0 -1.921875 0.375q-0.84375 0.375 -1.4375 1.0625q-0.59375 0.671875 -0.90625 1.59375q-0.296875 0.90625 -0.296875 1.984375zm2.171875 0.1875l0 -0.1875q0 -0.65625 0.140625 -1.234375q0.140625 -0.59375 0.4375 -1.046875q0.296875 -0.453125 0.75 -0.703125q0.453125 -0.265625 1.0625 -0.265625q0.640625 0 1.078125 0.265625q0.453125 0.25 0.765625 0.703125q0.28125 0.453125 0.421875 1.046875q0.140625 0.578125 0.140625 1.234375l0 0.1875q0 0.671875 -0.140625 1.265625q-0.140625 0.578125 -0.421875 1.03125q-0.296875 0.4375 -0.75 0.703125q-0.453125 0.265625 -1.0625 0.265625q-0.640625 0 -1.09375 -0.265625q-0.453125 -0.265625 -0.75 -0.703125q-0.296875 -0.453125 -0.4375 -1.03125q-0.140625 -0.59375 -0.140625 -1.265625zm9.414337 4.828125l2.1875 0l0 -7.03125q0.140625 -0.25 0.328125 -0.453125q0.203125 -0.21875 0.421875 -0.359375q0.28125 -0.1875 0.625 -0.296875q0.34375 -0.109375 0.75 -0.109375q0.46875 0 0.84375 0.109375q0.375 0.109375 0.640625 0.359375q0.265625 0.234375 0.40625 0.65625q0.140625 0.40625 0.140625 1.015625l0 6.109375l2.171875 0l0 -6.15625q0 -1.03125 -0.25 -1.765625q-0.25 -0.734375 -0.6875 -1.203125q-0.453125 -0.46875 -1.078125 -0.6875q-0.625 -0.21875 -1.390625 -0.21875q-0.5625 0 -1.09375 0.171875q-0.515625 0.15625 -0.953125 0.453125q-0.265625 0.1875 -0.515625 0.4375q-0.234375 0.234375 -0.4375 0.515625l-0.140625 -1.40625l-1.96875 0l0 9.859375zm13.679932 0l2.1875 0l0 -8.21875l3.65625 0l0 -1.640625l-3.65625 0l0 -0.59375q0 -0.53125 0.125 -0.921875q0.140625 -0.390625 0.40625 -0.65625q0.28125 -0.28125 0.71875 -0.421875q0.4375 -0.140625 1.046875 -0.140625q0.59375 0 1.046875 0.078125q0.46875 0.0625 0.828125 0.15625l0.171875 -1.734375q-0.28125 -0.046875 -0.546875 -0.09375q-0.25 -0.0625 -0.515625 -0.09375q-0.296875 -0.046875 -0.625 -0.078125q-0.328125 -0.03125 -0.65625 -0.03125q-0.96875 0 -1.734375 0.25q-0.765625 0.25 -1.3125 0.75q-0.546875 0.5 -0.84375 1.234375q-0.296875 0.734375 -0.296875 1.703125l0 0.59375l-2.640625 0l0 1.640625l2.640625 0l0 8.21875zm9.211212 -9.859375l0 1.8125l3.046875 0l0 6.25l-3.046875 0l0 1.796875l8.125 0l0 -1.796875l-2.890625 0l0 -8.0625l-5.234375 0zm2.84375 -2.546875q0 0.34375 0.15625 0.609375q0.171875 0.25 0.5 0.359375q0.328125 0.09375 0.59375 0.046875q0.265625 -0.0625 0.453125 -0.234375q0.375 -0.09375 0.578125 -0.390625q0.203125 -0.296875 0.140625 -0.703125q-0.046875 -0.390625 -0.359375 -0.640625q-0.296875 -0.25 -0.796875 -0.25q-0.28125 0 -0.515625 0.09375q-0.234375 0.078125 -0.40625 0.234375q-0.171875 0.15625 -0.265625 0.390625q-0.078125 0.21875 -0.078125 0.484375zm7.5705566 7.40625l0 0.1875q0 1.0625 0.28125 1.984375q0.28125 0.921875 0.796875 1.578125q0.515625 0.671875 1.234375 1.0625q0.734375 0.375 1.640625 0.375q0.5 0 0.921875 -0.109375q0.4375 -0.109375 0.796875 -0.3125q0.234375 -0.125 0.4375 -0.296875q0.203125 -0.171875 0.40625 -0.375l0 0.6875q0 0.5625 -0.171875 1.0q-0.15625 0.4375 -0.453125 0.734375q-0.3125 0.3125 -0.765625 0.46875q-0.453125 0.171875 -1.03125 0.171875q-0.34375 0 -0.671875 -0.078125q-0.3125 -0.0625 -0.640625 -0.203125q-0.3125 -0.15625 -0.625 -0.390625q-0.296875 -0.234375 -0.5625 -0.546875l-1.03125 1.328125q0.328125 0.4375 0.78125 0.734375q0.453125 0.3125 0.953125 0.5q0.5 0.203125 1.0 0.28125q0.5 0.09375 0.921875 0.09375q1.0 0 1.8125 -0.28125q0.828125 -0.265625 1.421875 -0.796875q0.59375 -0.53125 0.90625 -1.3125q0.328125 -0.765625 0.328125 -1.75l0 -9.59375l-1.984375 0l-0.078125 1.0q-0.1875 -0.21875 -0.40625 -0.40625q-0.203125 -0.1875 -0.4375 -0.328125q-0.359375 -0.21875 -0.8125 -0.328125q-0.453125 -0.109375 -1.0 -0.109375q-0.90625 0 -1.640625 0.375q-0.734375 0.359375 -1.25 1.015625q-0.53125 0.671875 -0.8125 1.59375q-0.265625 0.921875 -0.265625 2.046875zm2.1875 0.1875l0 -0.1875q0 -0.671875 0.140625 -1.25q0.140625 -0.59375 0.421875 -1.03125q0.28125 -0.453125 0.71875 -0.703125q0.4375 -0.265625 1.046875 -0.265625q0.359375 0 0.640625 0.078125q0.296875 0.078125 0.53125 0.203125q0.265625 0.15625 0.46875 0.375q0.203125 0.21875 0.359375 0.5l0 4.3125q-0.15625 0.265625 -0.34375 0.484375q-0.1875 0.21875 -0.4375 0.375q-0.25 0.140625 -0.5625 0.234375q-0.296875 0.078125 -0.671875 0.078125q-0.59375 0 -1.03125 -0.25q-0.4375 -0.25 -0.71875 -0.703125q-0.296875 -0.421875 -0.4375 -1.0q-0.125 -0.59375 -0.125 -1.25zm12.008087 3.5q0 0.625 0.40625 1.0625q0.421875 0.4375 1.171875 0.4375q0.734375 0 1.15625 -0.421875q0.421875 -0.4375 0.421875 -1.078125q0 -0.640625 -0.421875 -1.078125q-0.40625 -0.4375 -1.15625 -0.4375q-0.765625 0 -1.171875 0.453125q-0.40625 0.4375 -0.40625 1.0625zm8.898682 -12.6875l0 1.828125l3.125 0l0 10.375l-3.125 0l0 1.796875l8.296875 0l0 -1.796875l-2.984375 0l0 -12.203125l-5.3125 0zm17.242462 14.0l1.96875 0l0 -9.859375l-2.1875 0l0 6.984375q-0.125 0.265625 -0.3125 0.5q-0.171875 0.21875 -0.40625 0.375q-0.28125 0.1875 -0.65625 0.296875q-0.375 0.09375 -0.859375 0.09375q-0.453125 0 -0.796875 -0.109375q-0.328125 -0.125 -0.546875 -0.40625q-0.21875 -0.265625 -0.328125 -0.71875q-0.09375 -0.46875 -0.09375 -1.15625l0 -5.859375l-2.171875 0l0 5.84375q0 1.109375 0.25 1.90625q0.25 0.796875 0.6875 1.3125q0.453125 0.5 1.078125 0.75q0.640625 0.234375 1.40625 0.234375q0.890625 0 1.609375 -0.40625q0.71875 -0.421875 1.234375 -1.15625l0.125 1.375zm11.023682 0l2.21875 0l0 -0.15625q-0.171875 -0.375 -0.265625 -0.90625q-0.09375 -0.546875 -0.09375 -1.203125l0 -4.390625q0 -0.828125 -0.3125 -1.46875q-0.3125 -0.640625 -0.859375 -1.0625q-0.546875 -0.421875 -1.296875 -0.625q-0.75 -0.21875 -1.625 -0.21875q-0.953125 0 -1.71875 0.25q-0.75 0.25 -1.25 0.671875q-0.53125 0.421875 -0.8125 0.96875q-0.265625 0.546875 -0.28125 1.140625l2.1875 0q0 -0.28125 0.109375 -0.53125q0.109375 -0.25 0.328125 -0.4375q0.21875 -0.1875 0.546875 -0.296875q0.328125 -0.109375 0.78125 -0.109375q0.484375 0 0.859375 0.125q0.390625 0.125 0.65625 0.359375q0.234375 0.21875 0.359375 0.53125q0.140625 0.3125 0.140625 0.6875l0 0.671875l-1.578125 0q-1.0625 0 -1.90625 0.203125q-0.84375 0.1875 -1.421875 0.578125q-0.625 0.40625 -0.953125 1.03125q-0.3125 0.625 -0.3125 1.4375q0 0.625 0.25 1.171875q0.25 0.546875 0.703125 0.921875q0.453125 0.390625 1.078125 0.625q0.640625 0.21875 1.40625 0.21875q0.46875 0 0.875 -0.09375q0.421875 -0.09375 0.765625 -0.25q0.359375 -0.15625 0.640625 -0.375q0.296875 -0.21875 0.515625 -0.453125q0.046875 0.28125 0.109375 0.546875q0.0625 0.25 0.15625 0.4375zm-2.640625 -1.5625q-0.421875 0 -0.734375 -0.109375q-0.3125 -0.109375 -0.515625 -0.28125q-0.21875 -0.1875 -0.328125 -0.4375q-0.109375 -0.265625 -0.109375 -0.5625q0 -0.375 0.125 -0.65625q0.140625 -0.296875 0.421875 -0.515625q0.3125 -0.234375 0.828125 -0.359375q0.515625 -0.140625 1.21875 -0.140625l1.40625 0l0 1.8125q-0.109375 0.25 -0.328125 0.46875q-0.21875 0.21875 -0.53125 0.390625q-0.296875 0.171875 -0.671875 0.28125q-0.359375 0.109375 -0.78125 0.109375z" fill-rule="nonzero"/><path fill="#000000" fill-opacity="0.0" d="m84.53937 204.40158l0 -38.61418" fill-rule="evenodd"/><path stroke="#999999" stroke-width="2.0" stroke-linejoin="round" stroke-linecap="butt" d="m84.53937 204.40158l0 -26.614182" fill-rule="evenodd"/><path fill="#999999" stroke="#999999" stroke-width="2.0" stroke-linecap="butt" d="m87.842834 177.7874l-3.3034668 -9.076187l-3.3034592 9.076187z" fill-rule="evenodd"/><path fill="#000000" fill-opacity="0.0" d="m156.0 221.99081l80.12599 0" fill-rule="evenodd"/><path stroke="#999999" stroke-width="2.0" stroke-linejoin="round" stroke-linecap="butt" d="m156.0 221.99081l68.12599 0" fill-rule="evenodd"/><path fill="#999999" stroke="#999999" stroke-width="2.0" stroke-linecap="butt" d="m224.12599 225.29428l9.076187 -3.3034668l-9.076187 -3.3034668z" fill-rule="evenodd"/><path fill="#000000" fill-opacity="0.0" d="m374.99213 221.99081l90.58267 0" fill-rule="evenodd"/><path stroke="#999999" stroke-width="2.0" stroke-linejoin="round" stroke-linecap="butt" d="m386.99213 221.99081l78.58267 0" fill-rule="evenodd"/><path fill="#999999" stroke="#999999" stroke-width="2.0" stroke-linecap="butt" d="m386.99213 218.68735l-9.076202 3.3034668l9.076202 3.3034668z" fill-rule="evenodd"/><path fill="#000000" fill-opacity="0.0" d="m434.8609 86.73032l0 0c0 -6.463257 5.239502 -11.702766 11.702759 -11.702766l152.1535 0c3.1037598 0 6.0804443 1.2329712 8.2751465 3.4276657c2.194641 2.1946945 3.4276123 5.1713333 3.4276123 8.275101l0 298.57874c0 6.463257 -5.239502 11.702759 -11.702759 11.702759l-152.1535 0l0 0c-6.463257 0 -11.702759 -5.239502 -11.702759 -11.702759z" fill-rule="evenodd"/><path stroke="#cccccc" stroke-width="2.0" stroke-linejoin="round" stroke-linecap="butt" d="m434.8609 86.73032l0 0c0 -6.463257 5.239502 -11.702766 11.702759 -11.702766l152.1535 0c3.1037598 0 6.0804443 1.2329712 8.2751465 3.4276657c2.194641 2.1946945 3.4276123 5.1713333 3.4276123 8.275101l0 298.57874c0 6.463257 -5.239502 11.702759 -11.702759 11.702759l-152.1535 0l0 0c-6.463257 0 -11.702759 -5.239502 -11.702759 -11.702759z" fill-rule="evenodd"/><path fill="#999999" d="m451.0385 103.57831l0 -11.46875l-2.203125 0l0 13.265625l8.53125 0l0 -1.796875l-6.328125 0zm8.461212 -3.21875l0 0.1875q0 1.078125 0.296875 2.0q0.3125 0.90625 0.90625 1.578125q0.59375 0.671875 1.4375 1.0625q0.859375 0.375 1.953125 0.375q1.0625 0 1.90625 -0.375q0.859375 -0.390625 1.453125 -1.0625q0.578125 -0.671875 0.890625 -1.578125q0.3125 -0.921875 0.3125 -2.0l0 -0.1875q0 -1.078125 -0.3125 -1.984375q-0.3125 -0.921875 -0.890625 -1.59375q-0.59375 -0.6875 -1.453125 -1.0625q-0.84375 -0.375 -1.9375 -0.375q-1.078125 0 -1.921875 0.375q-0.84375 0.375 -1.4375 1.0625q-0.59375 0.671875 -0.90625 1.59375q-0.296875 0.90625 -0.296875 1.984375zm2.171875 0.1875l0 -0.1875q0 -0.65625 0.140625 -1.234375q0.140625 -0.59375 0.4375 -1.046875q0.296875 -0.453125 0.75 -0.703125q0.453125 -0.265625 1.0625 -0.265625q0.640625 0 1.078125 0.265625q0.453125 0.25 0.765625 0.703125q0.28125 0.453125 0.421875 1.046875q0.140625 0.578125 0.140625 1.234375l0 0.1875q0 0.671875 -0.140625 1.265625q-0.140625 0.578125 -0.421875 1.03125q-0.296875 0.4375 -0.75 0.703125q-0.453125 0.265625 -1.0625 0.265625q-0.640625 0 -1.09375 -0.265625q-0.453125 -0.265625 -0.75 -0.703125q-0.296875 -0.453125 -0.4375 -1.03125q-0.140625 -0.59375 -0.140625 -1.265625zm13.711182 3.265625q-0.6875 0 -1.140625 -0.265625q-0.453125 -0.28125 -0.71875 -0.734375q-0.265625 -0.4375 -0.390625 -1.015625q-0.109375 -0.578125 -0.109375 -1.1875l0 -0.3125q0 -0.59375 0.109375 -1.171875q0.125 -0.578125 0.40625 -1.015625q0.265625 -0.453125 0.703125 -0.71875q0.453125 -0.28125 1.140625 -0.28125q0.453125 0 0.828125 0.15625q0.390625 0.140625 0.671875 0.40625q0.28125 0.265625 0.421875 0.625q0.15625 0.359375 0.15625 0.75l2.046875 0q0.015625 -0.8125 -0.296875 -1.5q-0.296875 -0.6875 -0.84375 -1.171875q-0.546875 -0.484375 -1.3125 -0.75q-0.765625 -0.28125 -1.65625 -0.28125q-1.125 0 -1.984375 0.390625q-0.84375 0.390625 -1.421875 1.0625q-0.578125 0.6875 -0.859375 1.59375q-0.28125 0.890625 -0.28125 1.90625l0 0.3125q0 1.015625 0.28125 1.921875q0.296875 0.890625 0.875 1.5625q0.5625 0.6875 1.40625 1.078125q0.859375 0.390625 2.0 0.390625q0.8125 0 1.546875 -0.265625q0.75 -0.265625 1.328125 -0.734375q0.5625 -0.46875 0.890625 -1.09375q0.34375 -0.640625 0.328125 -1.359375l-2.046875 0q0 0.375 -0.171875 0.6875q-0.171875 0.3125 -0.453125 0.53125q-0.28125 0.234375 -0.671875 0.359375q-0.375 0.125 -0.78125 0.125zm13.195587 1.5625l2.21875 0l0 -0.15625q-0.171875 -0.375 -0.265625 -0.90625q-0.09375 -0.546875 -0.09375 -1.203125l0 -4.390625q0 -0.828125 -0.3125 -1.46875q-0.3125 -0.640625 -0.859375 -1.0625q-0.546875 -0.421875 -1.296875 -0.625q-0.75 -0.21875 -1.625 -0.21875q-0.953125 0 -1.71875 0.25q-0.75 0.25 -1.25 0.671875q-0.53125 0.421875 -0.8125 0.96875q-0.265625 0.546875 -0.28125 1.140625l2.1875 0q0 -0.28125 0.109375 -0.53125q0.109375 -0.25 0.328125 -0.4375q0.21875 -0.1875 0.546875 -0.296875q0.328125 -0.109375 0.78125 -0.109375q0.484375 0 0.859375 0.125q0.390625 0.125 0.65625 0.359375q0.234375 0.21875 0.359375 0.53125q0.140625 0.3125 0.140625 0.6875l0 0.671875l-1.578125 0q-1.0625 0 -1.90625 0.203125q-0.84375 0.1875 -1.421875 0.578125q-0.625 0.40625 -0.953125 1.03125q-0.3125 0.625 -0.3125 1.4375q0 0.625 0.25 1.171875q0.25 0.546875 0.703125 0.921875q0.453125 0.390625 1.078125 0.625q0.640625 0.21875 1.40625 0.21875q0.46875 0 0.875 -0.09375q0.421875 -0.09375 0.765625 -0.25q0.359375 -0.15625 0.640625 -0.375q0.296875 -0.21875 0.515625 -0.453125q0.046875 0.28125 0.109375 0.546875q0.0625 0.25 0.15625 0.4375zm-2.640625 -1.5625q-0.421875 0 -0.734375 -0.109375q-0.3125 -0.109375 -0.515625 -0.28125q-0.21875 -0.1875 -0.328125 -0.4375q-0.109375 -0.265625 -0.109375 -0.5625q0 -0.375 0.125 -0.65625q0.140625 -0.296875 0.421875 -0.515625q0.3125 -0.234375 0.828125 -0.359375q0.515625 -0.140625 1.21875 -0.140625l1.40625 0l0 1.8125q-0.109375 0.25 -0.328125 0.46875q-0.21875 0.21875 -0.53125 0.390625q-0.296875 0.171875 -0.671875 0.28125q-0.359375 0.109375 -0.78125 0.109375zm7.9611816 -12.4375l0 1.828125l3.125 0l0 10.375l-3.125 0l0 1.796875l8.296875 0l0 -1.796875l-2.984375 0l0 -12.203125l-5.3125 0zm15.383087 14.1875q1.4375 0 2.453125 -0.5625q1.0155945 -0.578125 1.4999695 -1.28125l-1.15625 -1.125q-0.45309448 0.578125 -1.1562195 0.890625q-0.703125 0.3125 -1.515625 0.3125q-0.59375 0 -1.09375 -0.203125q-0.484375 -0.203125 -0.859375 -0.5625q-0.359375 -0.34375 -0.578125 -0.78125q-0.203125 -0.4375 -0.296875 -1.078125l0 -0.046875l6.8280945 0l0 -0.9375q0 -1.0625 -0.28125 -1.953125q-0.28125 -0.890625 -0.84375 -1.546875q-0.5468445 -0.625 -1.3749695 -0.984375q-0.8125 -0.359375 -1.890625 -0.359375q-0.953125 0 -1.796875 0.359375q-0.84375 0.359375 -1.46875 1.015625q-0.640625 0.671875 -1.015625 1.609375q-0.359375 0.9375 -0.359375 2.09375l0 0.375q0 1.0 0.34375 1.875q0.359375 0.875 1.0 1.515625q0.65625 0.640625 1.5625 1.015625q0.90625 0.359375 2.0 0.359375zm-0.265625 -8.453125q0.546875 0 0.953125 0.1875q0.421875 0.1875 0.6875 0.484375q0.28125 0.328125 0.4375 0.75q0.15625 0.421875 0.15625 0.84375l0 0.15625l-4.625 0q0.09375 -0.5625 0.296875 -1.015625q0.21875 -0.453125 0.53125 -0.765625q0.296875 -0.3125 0.6875 -0.46875q0.40625 -0.171875 0.875 -0.171875zm13.304962 5.59375q0 0.234375 -0.109375 0.4375q-0.109375 0.1875 -0.3125 0.359375q-0.265625 0.203125 -0.6875 0.328125q-0.421875 0.109375 -0.984375 0.109375q-0.421875 0 -0.828125 -0.078125q-0.40625 -0.09375 -0.734375 -0.296875q-0.328125 -0.1875 -0.546875 -0.5q-0.203125 -0.3125 -0.234375 -0.78125l-2.109375 0q0 0.609375 0.28125 1.203125q0.296875 0.59375 0.859375 1.046875q0.5625 0.46875 1.390625 0.75q0.828125 0.28125 1.890625 0.28125q0.953125 0 1.734375 -0.21875q0.78125 -0.21875 1.34375 -0.609375q0.5625 -0.390625 0.859375 -0.9375q0.3125 -0.546875 0.3125 -1.203125q0 -0.671875 -0.296875 -1.15625q-0.28125 -0.5 -0.8125 -0.859375q-0.53125 -0.34375 -1.28125 -0.578125q-0.75 -0.25 -1.640625 -0.40625q-0.65625 -0.109375 -1.078125 -0.25q-0.421875 -0.140625 -0.65625 -0.296875q-0.25 -0.15625 -0.359375 -0.359375q-0.09375 -0.203125 -0.09375 -0.46875q0 -0.234375 0.109375 -0.453125q0.125 -0.234375 0.359375 -0.390625q0.234375 -0.1875 0.59375 -0.296875q0.375 -0.109375 0.875 -0.109375q0.53125 0 0.9375 0.15625q0.40625 0.140625 0.65625 0.375q0.21875 0.203125 0.328125 0.453125q0.125 0.25 0.125 0.515625l2.171875 0q0 -0.65625 -0.296875 -1.234375q-0.28125 -0.578125 -0.828125 -1.0q-0.546875 -0.421875 -1.328125 -0.65625q-0.78125 -0.234375 -1.765625 -0.234375q-0.921875 0 -1.671875 0.234375q-0.75 0.234375 -1.28125 0.640625q-0.53125 0.40625 -0.828125 0.953125q-0.28125 0.546875 -0.28125 1.140625q0 0.625 0.28125 1.109375q0.28125 0.46875 0.78125 0.8125q0.515625 0.375 1.21875 0.625q0.703125 0.25 1.5625 0.421875q0.6875 0.125 1.140625 0.28125q0.453125 0.140625 0.734375 0.3125q0.265625 0.171875 0.375 0.375q0.125 0.203125 0.125 0.453125z" fill-rule="nonzero"/><path fill="#00007c" fill-opacity="0.8" d="m465.55905 207.0803l114.16275 0l0 29.821518l-114.16275 0z" fill-rule="evenodd"/><path fill="#d9d9d9" d="m484.58963 228.00731q1.234375 0 2.109375 -0.484375q0.875 -0.484375 1.296875 -1.09375l-1.0 -0.96875q-0.390625 0.5 -1.0 0.765625q-0.59375 0.265625 -1.296875 0.265625q-0.5 0 -0.9375 -0.171875q-0.421875 -0.171875 -0.734375 -0.484375q-0.3125 -0.296875 -0.5 -0.671875q-0.171875 -0.375 -0.25 -0.921875l0 -0.046875l5.859375 0l0 -0.796875q0 -0.90625 -0.25 -1.671875q-0.234375 -0.765625 -0.71875 -1.328125q-0.46875 -0.546875 -1.171875 -0.84375q-0.703125 -0.3125 -1.625 -0.3125q-0.8125 0 -1.546875 0.3125q-0.71875 0.296875 -1.265625 0.875q-0.546875 0.5625 -0.859375 1.375q-0.3125 0.796875 -0.3125 1.796875l0 0.3125q0 0.875 0.296875 1.625q0.3125 0.734375 0.859375 1.28125q0.5625 0.5625 1.328125 0.875q0.78125 0.3125 1.71875 0.3125zm-0.21875 -7.25q0.46875 0 0.8125 0.15625q0.359375 0.15625 0.59375 0.421875q0.25 0.28125 0.375 0.640625q0.140625 0.359375 0.140625 0.734375l0 0.125l-3.984375 0q0.09375 -0.484375 0.265625 -0.859375q0.1875 -0.390625 0.453125 -0.671875q0.265625 -0.265625 0.59375 -0.40625q0.34375 -0.140625 0.75 -0.140625zm5.8828125 7.09375l1.859375 0l0 -6.03125q0.125 -0.21875 0.28125 -0.390625q0.171875 -0.1875 0.359375 -0.3125q0.25 -0.15625 0.546875 -0.25q0.296875 -0.09375 0.640625 -0.09375q0.40625 0 0.71875 0.09375q0.328125 0.09375 0.5625 0.296875q0.21875 0.21875 0.328125 0.578125q0.125 0.34375 0.125 0.859375l0 5.25l1.875 0l0 -5.28125q0 -0.890625 -0.21875 -1.515625q-0.203125 -0.625 -0.59375 -1.03125q-0.375 -0.40625 -0.921875 -0.59375q-0.53125 -0.1875 -1.1875 -0.1875q-0.484375 0 -0.9375 0.140625q-0.4375 0.140625 -0.8125 0.390625q-0.234375 0.171875 -0.453125 0.375q-0.203125 0.203125 -0.375 0.453125l-0.109375 -1.203125l-1.6875 0l0 8.453125zm16.664062 -4.25l0 -1.515625l-6.28125 0l0 1.515625l6.28125 0zm9.882843 -7.125l-1.84375 0l-0.015625 7.609375q-0.015625 0.53125 -0.140625 0.96875q-0.125 0.4375 -0.375 0.765625q-0.234375 0.3125 -0.59375 0.484375q-0.359375 0.15625 -0.8125 0.15625q-0.453125 0 -0.796875 -0.15625q-0.34378052 -0.171875 -0.5781555 -0.46875q-0.234375 -0.3125 -0.359375 -0.765625q-0.125 -0.453125 -0.140625 -0.984375l-0.015625 -7.609375l-1.84375 0l-0.015625 7.609375q0 0.875 0.265625 1.609375q0.28125 0.71875 0.765625 1.234375q0.484375 0.515625 1.171875 0.796875q0.6875305 0.28125 1.5469055 0.28125q0.859375 0 1.5625 -0.28125q0.703125 -0.28125 1.203125 -0.796875q0.484375 -0.515625 0.75 -1.234375q0.28125 -0.734375 0.28125 -1.609375l-0.015625 -7.609375zm8.1328125 8.4375q0 0.375 -0.15625 0.671875q-0.15625 0.28125 -0.421875 0.484375q-0.28125 0.203125 -0.65625 0.3125q-0.359375 0.09375 -0.796875 0.09375q-0.5 0 -0.9375 -0.125q-0.421875 -0.125 -0.734375 -0.390625q-0.3125 -0.25 -0.5 -0.625q-0.1875 -0.390625 -0.21875 -0.921875l-1.875 0q0 0.828125 0.328125 1.46875q0.328125 0.625 0.875 1.09375q0.609375 0.5 1.421875 0.765625q0.8125 0.265625 1.640625 0.265625q0.796875 0 1.5 -0.203125q0.71875 -0.203125 1.25 -0.609375q0.53125 -0.375 0.84375 -0.953125q0.328125 -0.578125 0.328125 -1.34375q0 -0.8125 -0.375 -1.4375q-0.359375 -0.640625 -0.953125 -1.09375q-0.484375 -0.359375 -1.0625 -0.609375q-0.578125 -0.25 -1.171875 -0.421875q-0.484375 -0.140625 -0.921875 -0.296875q-0.421875 -0.171875 -0.765625 -0.390625q-0.328125 -0.21875 -0.53125 -0.515625q-0.1875 -0.296875 -0.1875 -0.6875q0 -0.359375 0.140625 -0.65625q0.15625 -0.296875 0.421875 -0.515625q0.265625 -0.203125 0.625 -0.3125q0.359375 -0.109375 0.796875 -0.109375q0.484375 0 0.859375 0.140625q0.390625 0.140625 0.65625 0.390625q0.25 0.265625 0.390625 0.625q0.15625 0.34375 0.1875 0.78125l1.859375 0q0 -0.78125 -0.3125 -1.40625q-0.296875 -0.640625 -0.828125 -1.109375q-0.53125 -0.453125 -1.25 -0.703125q-0.71875 -0.25 -1.546875 -0.25q-0.78125 0 -1.484375 0.21875q-0.703125 0.203125 -1.234375 0.609375q-0.53125 0.421875 -0.84375 1.0q-0.3125 0.578125 -0.3125 1.3125q0 0.671875 0.265625 1.203125q0.265625 0.53125 0.75 0.953125q0.46875 0.421875 1.140625 0.75q0.6875 0.328125 1.484375 0.5625q0.53125 0.140625 0.953125 0.328125q0.421875 0.1875 0.734375 0.40625q0.296875 0.25 0.453125 0.5625q0.171875 0.296875 0.171875 0.6875zm6.0546875 1.8125q0 0.53125 0.34375 0.90625q0.359375 0.375 1.0 0.375q0.640625 0 1.0 -0.359375q0.359375 -0.375 0.359375 -0.921875q0 -0.546875 -0.359375 -0.921875q-0.359375 -0.390625 -1.0 -0.390625q-0.65625 0 -1.0 0.390625q-0.34375 0.375 -0.34375 0.921875zm7.6328125 -10.875l0 1.546875l2.671875 0l0 8.90625l-2.671875 0l0 1.546875l7.109375 0l0 -1.546875l-2.5625 0l0 -10.453125l-4.546875 0zm14.7734375 12.0l1.703125 0l0 -8.453125l-1.875 0l0 5.984375q-0.109375 0.234375 -0.265625 0.421875q-0.15625 0.1875 -0.359375 0.328125q-0.25 0.15625 -0.578125 0.25q-0.3125 0.09375 -0.71875 0.09375q-0.390625 0 -0.6875 -0.09375q-0.28125 -0.109375 -0.46875 -0.359375q-0.1875 -0.234375 -0.28125 -0.625q-0.078125 -0.390625 -0.078125 -0.984375l0 -5.015625l-1.859375 0l0 5.0q0 0.953125 0.203125 1.640625q0.21875 0.6875 0.59375 1.125q0.390625 0.4375 0.9375 0.65625q0.546875 0.203125 1.203125 0.203125q0.765625 0 1.375 -0.359375q0.625 -0.359375 1.046875 -1.0l0.109375 1.1875zm9.4609375 0l1.90625 0l0 -0.140625q-0.15625 -0.328125 -0.234375 -0.78125q-0.078125 -0.453125 -0.078125 -1.03125l0 -3.75q0 -0.71875 -0.265625 -1.265625q-0.265625 -0.5625 -0.734375 -0.921875q-0.46875 -0.359375 -1.125 -0.53125q-0.640625 -0.1875 -1.375 -0.1875q-0.828125 0 -1.484375 0.21875q-0.640625 0.203125 -1.078125 0.578125q-0.453125 0.359375 -0.6875 0.828125q-0.234375 0.46875 -0.234375 0.96875l1.875 0q0 -0.234375 0.078125 -0.453125q0.09375 -0.21875 0.28125 -0.359375q0.1875 -0.171875 0.46875 -0.265625q0.296875 -0.09375 0.671875 -0.09375q0.421875 0 0.75 0.109375q0.328125 0.109375 0.546875 0.296875q0.21875 0.203125 0.328125 0.46875q0.109375 0.265625 0.109375 0.59375l0 0.5625l-1.359375 0q-0.90625 0 -1.640625 0.171875q-0.71875 0.171875 -1.203125 0.5q-0.53125 0.359375 -0.8125 0.890625q-0.28125 0.53125 -0.28125 1.234375q0 0.53125 0.21875 1.0q0.21875 0.46875 0.609375 0.796875q0.375 0.328125 0.921875 0.53125q0.546875 0.1875 1.203125 0.1875q0.40625 0 0.75 -0.078125q0.359375 -0.078125 0.65625 -0.21875q0.3125 -0.140625 0.546875 -0.3125q0.25 -0.1875 0.453125 -0.390625q0.03125 0.234375 0.078125 0.46875q0.0625 0.21875 0.140625 0.375zm-2.265625 -1.34375q-0.359375 0 -0.625 -0.09375q-0.265625 -0.09375 -0.453125 -0.25q-0.171875 -0.15625 -0.265625 -0.375q-0.09375 -0.21875 -0.09375 -0.484375q0 -0.3125 0.109375 -0.5625q0.109375 -0.25 0.34375 -0.421875q0.265625 -0.21875 0.703125 -0.328125q0.453125 -0.109375 1.0625 -0.109375l1.203125 0l0 1.5625q-0.09375 0.203125 -0.28125 0.390625q-0.1875 0.1875 -0.453125 0.328125q-0.25 0.15625 -0.578125 0.25q-0.3125 0.09375 -0.671875 0.09375z" fill-rule="nonzero"/><path fill="#00007c" fill-opacity="0.8" d="m465.55905 256.0803l114.16275 0l0 29.821533l-114.16275 0z" fill-rule="evenodd"/><path fill="#d9d9d9" d="m484.58963 277.00732q1.234375 0 2.109375 -0.484375q0.875 -0.484375 1.296875 -1.09375l-1.0 -0.96875q-0.390625 0.5 -1.0 0.765625q-0.59375 0.265625 -1.296875 0.265625q-0.5 0 -0.9375 -0.171875q-0.421875 -0.171875 -0.734375 -0.484375q-0.3125 -0.296875 -0.5 -0.671875q-0.171875 -0.375 -0.25 -0.921875l0 -0.046875l5.859375 0l0 -0.796875q0 -0.90625 -0.25 -1.671875q-0.234375 -0.765625 -0.71875 -1.328125q-0.46875 -0.546875 -1.171875 -0.84375q-0.703125 -0.3125 -1.625 -0.3125q-0.8125 0 -1.546875 0.3125q-0.71875 0.296875 -1.265625 0.875q-0.546875 0.5625 -0.859375 1.375q-0.3125 0.796875 -0.3125 1.796875l0 0.3125q0 0.875 0.296875 1.625q0.3125 0.734375 0.859375 1.28125q0.5625 0.5625 1.328125 0.875q0.78125 0.3125 1.71875 0.3125zm-0.21875 -7.25q0.46875 0 0.8125 0.15625q0.359375 0.15625 0.59375 0.421875q0.25 0.28125 0.375 0.640625q0.140625 0.359375 0.140625 0.734375l0 0.125l-3.984375 0q0.09375 -0.484375 0.265625 -0.859375q0.1875 -0.390625 0.453125 -0.671875q0.265625 -0.265625 0.59375 -0.40625q0.34375 -0.140625 0.75 -0.140625zm11.3984375 4.796875q0 0.203125 -0.09375 0.375q-0.078125 0.171875 -0.265625 0.3125q-0.21875 0.171875 -0.578125 0.28125q-0.359375 0.09375 -0.84375 0.09375q-0.359375 0 -0.71875 -0.078125q-0.34375 -0.078125 -0.625 -0.25q-0.28125 -0.15625 -0.46875 -0.421875q-0.171875 -0.28125 -0.203125 -0.671875l-1.8125 0q0 0.53125 0.25 1.046875q0.25 0.5 0.734375 0.890625q0.484375 0.390625 1.1875 0.640625q0.703125 0.25 1.625 0.25q0.8125 0 1.484375 -0.1875q0.671875 -0.203125 1.15625 -0.53125q0.484375 -0.34375 0.734375 -0.8125q0.265625 -0.46875 0.265625 -1.03125q0 -0.578125 -0.25 -1.0q-0.25 -0.421875 -0.703125 -0.734375q-0.453125 -0.296875 -1.09375 -0.5q-0.640625 -0.203125 -1.40625 -0.34375q-0.5625 -0.09375 -0.921875 -0.203125q-0.359375 -0.125 -0.5625 -0.265625q-0.21875 -0.125 -0.3125 -0.296875q-0.078125 -0.1875 -0.078125 -0.40625q0 -0.203125 0.09375 -0.390625q0.109375 -0.203125 0.3125 -0.34375q0.203125 -0.15625 0.515625 -0.234375q0.3125 -0.09375 0.734375 -0.09375q0.46875 0 0.8125 0.125q0.34375 0.109375 0.5625 0.3125q0.1875 0.171875 0.28125 0.390625q0.09375 0.21875 0.09375 0.453125l1.875 0q0 -0.578125 -0.25 -1.0625q-0.25 -0.5 -0.71875 -0.859375q-0.46875 -0.359375 -1.140625 -0.5625q-0.671875 -0.203125 -1.515625 -0.203125q-0.78125 0 -1.4375 0.203125q-0.640625 0.203125 -1.09375 0.546875q-0.453125 0.359375 -0.703125 0.828125q-0.25 0.453125 -0.25 0.96875q0 0.546875 0.234375 0.953125q0.25 0.40625 0.6875 0.703125q0.4375 0.3125 1.03125 0.53125q0.609375 0.21875 1.34375 0.359375q0.59375 0.109375 0.984375 0.234375q0.390625 0.125 0.625 0.265625q0.234375 0.15625 0.328125 0.328125q0.09375 0.171875 0.09375 0.390625zm11.1484375 -1.953125l0 -1.515625l-6.28125 0l0 1.515625l6.28125 0zm9.179718 -0.859375l0 -1.515625l-4.7031555 0l0 -3.203125l5.4531555 0l0 -1.546875l-7.3437805 0l0 11.375l7.3750305 0l0 -1.546875l-5.4844055 0l0 -3.5625l4.7031555 0zm8.8359375 2.171875q0 0.375 -0.15625 0.671875q-0.15625 0.28125 -0.421875 0.484375q-0.28125 0.203125 -0.65625 0.3125q-0.359375 0.09375 -0.796875 0.09375q-0.5 0 -0.9375 -0.125q-0.421875 -0.125 -0.734375 -0.390625q-0.3125 -0.25 -0.5 -0.625q-0.1875 -0.390625 -0.21875 -0.921875l-1.875 0q0 0.828125 0.328125 1.46875q0.328125 0.625 0.875 1.09375q0.609375 0.5 1.421875 0.765625q0.8125 0.265625 1.640625 0.265625q0.796875 0 1.5 -0.203125q0.71875 -0.203125 1.25 -0.609375q0.53125 -0.375 0.84375 -0.953125q0.328125 -0.578125 0.328125 -1.34375q0 -0.8125 -0.375 -1.4375q-0.359375 -0.640625 -0.953125 -1.09375q-0.484375 -0.359375 -1.0625 -0.609375q-0.578125 -0.25 -1.171875 -0.421875q-0.484375 -0.140625 -0.921875 -0.296875q-0.421875 -0.171875 -0.765625 -0.390625q-0.328125 -0.21875 -0.53125 -0.515625q-0.1875 -0.296875 -0.1875 -0.6875q0 -0.359375 0.140625 -0.65625q0.15625 -0.296875 0.421875 -0.515625q0.265625 -0.203125 0.625 -0.3125q0.359375 -0.109375 0.796875 -0.109375q0.484375 0 0.859375 0.140625q0.390625 0.140625 0.65625 0.390625q0.25 0.265625 0.390625 0.625q0.15625 0.34375 0.1875 0.78125l1.859375 0q0 -0.78125 -0.3125 -1.40625q-0.296875 -0.640625 -0.828125 -1.109375q-0.53125 -0.453125 -1.25 -0.703125q-0.71875 -0.25 -1.546875 -0.25q-0.78125 0 -1.484375 0.21875q-0.703125 0.203125 -1.234375 0.609375q-0.53125 0.421875 -0.84375 1.0q-0.3125 0.578125 -0.3125 1.3125q0 0.671875 0.265625 1.203125q0.265625 0.53125 0.75 0.953125q0.46875 0.421875 1.140625 0.75q0.6875 0.328125 1.484375 0.5625q0.53125 0.140625 0.953125 0.328125q0.421875 0.1875 0.734375 0.40625q0.296875 0.25 0.453125 0.5625q0.171875 0.296875 0.171875 0.6875zm6.0546875 1.8125q0 0.53125 0.34375 0.90625q0.359375 0.375 1.0 0.375q0.640625 0 1.0 -0.359375q0.359375 -0.375 0.359375 -0.921875q0 -0.546875 -0.359375 -0.921875q-0.359375 -0.390625 -1.0 -0.390625q-0.65625 0 -1.0 0.390625q-0.34375 0.375 -0.34375 0.921875zm7.6328125 -10.875l0 1.546875l2.671875 0l0 8.90625l-2.671875 0l0 1.546875l7.109375 0l0 -1.546875l-2.5625 0l0 -10.453125l-4.546875 0zm14.7734375 12.0l1.703125 0l0 -8.453125l-1.875 0l0 5.984375q-0.109375 0.234375 -0.265625 0.421875q-0.15625 0.1875 -0.359375 0.328125q-0.25 0.15625 -0.578125 0.25q-0.3125 0.09375 -0.71875 0.09375q-0.390625 0 -0.6875 -0.09375q-0.28125 -0.109375 -0.46875 -0.359375q-0.1875 -0.234375 -0.28125 -0.625q-0.078125 -0.390625 -0.078125 -0.984375l0 -5.015625l-1.859375 0l0 5.0q0 0.953125 0.203125 1.640625q0.21875 0.6875 0.59375 1.125q0.390625 0.4375 0.9375 0.65625q0.546875 0.203125 1.203125 0.203125q0.765625 0 1.375 -0.359375q0.625 -0.359375 1.046875 -1.0l0.109375 1.1875zm9.4609375 0l1.90625 0l0 -0.140625q-0.15625 -0.328125 -0.234375 -0.78125q-0.078125 -0.453125 -0.078125 -1.03125l0 -3.75q0 -0.71875 -0.265625 -1.265625q-0.265625 -0.5625 -0.734375 -0.921875q-0.46875 -0.359375 -1.125 -0.53125q-0.640625 -0.1875 -1.375 -0.1875q-0.828125 0 -1.484375 0.21875q-0.640625 0.203125 -1.078125 0.578125q-0.453125 0.359375 -0.6875 0.828125q-0.234375 0.46875 -0.234375 0.96875l1.875 0q0 -0.234375 0.078125 -0.453125q0.09375 -0.21875 0.28125 -0.359375q0.1875 -0.171875 0.46875 -0.265625q0.296875 -0.09375 0.671875 -0.09375q0.421875 0 0.75 0.109375q0.328125 0.109375 0.546875 0.296875q0.21875 0.203125 0.328125 0.46875q0.109375 0.265625 0.109375 0.59375l0 0.5625l-1.359375 0q-0.90625 0 -1.640625 0.171875q-0.71875 0.171875 -1.203125 0.5q-0.53125 0.359375 -0.8125 0.890625q-0.28125 0.53125 -0.28125 1.234375q0 0.53125 0.21875 1.0q0.21875 0.46875 0.609375 0.796875q0.375 0.328125 0.921875 0.53125q0.546875 0.1875 1.203125 0.1875q0.40625 0 0.75 -0.078125q0.359375 -0.078125 0.65625 -0.21875q0.3125 -0.140625 0.546875 -0.3125q0.25 -0.1875 0.453125 -0.390625q0.03125 0.234375 0.078125 0.46875q0.0625 0.21875 0.140625 0.375zm-2.265625 -1.34375q-0.359375 0 -0.625 -0.09375q-0.265625 -0.09375 -0.453125 -0.25q-0.171875 -0.15625 -0.265625 -0.375q-0.09375 -0.21875 -0.09375 -0.484375q0 -0.3125 0.109375 -0.5625q0.109375 -0.25 0.34375 -0.421875q0.265625 -0.21875 0.703125 -0.328125q0.453125 -0.109375 1.0625 -0.109375l1.203125 0l0 1.5625q-0.09375 0.203125 -0.28125 0.390625q-0.1875 0.1875 -0.453125 0.328125q-0.25 0.15625 -0.578125 0.25q-0.3125 0.09375 -0.671875 0.09375z" fill-rule="nonzero"/><path fill="#00007c" fill-opacity="0.8" d="m465.55905 305.0803l114.16275 0l0 29.821533l-114.16275 0z" fill-rule="evenodd"/><path fill="#d9d9d9" d="m482.77713 325.85107l1.875 0l0 -7.0625l3.125 0l0 -1.390625l-3.125 0l0 -0.515625q0 -0.453125 0.109375 -0.78125q0.109375 -0.34375 0.34375 -0.5625q0.234375 -0.25 0.609375 -0.375q0.390625 -0.125 0.90625 -0.125q0.5 0 0.890625 0.0625q0.40625 0.0625 0.71875 0.15625l0.140625 -1.5q-0.234375 -0.046875 -0.46875 -0.078125q-0.21875 -0.046875 -0.4375 -0.078125q-0.265625 -0.046875 -0.546875 -0.0625q-0.265625 -0.03125 -0.5625 -0.03125q-0.8125 0 -1.484375 0.21875q-0.65625 0.21875 -1.125 0.640625q-0.46875 0.421875 -0.71875 1.0625q-0.25 0.625 -0.25 1.453125l0 0.515625l-2.265625 0l0 1.390625l2.265625 0l0 7.0625zm13.3203125 -8.609375q-0.875 0 -1.609375 0.40625q-0.71875 0.40625 -1.234375 1.109375l0 -0.1875l-0.078125 -1.171875l-1.75 0l0 8.453125l1.859375 0l0 -5.21875q0.15625 -0.375 0.375 -0.65625q0.21875 -0.296875 0.53125 -0.484375q0.28125 -0.203125 0.65625 -0.296875q0.375 -0.09375 0.84375 -0.09375q0.421875 0 0.828125 0.046875q0.421875 0.046875 0.859375 0.140625l0.265625 -1.84375q-0.25 -0.078125 -0.671875 -0.140625q-0.421875 -0.0625 -0.875 -0.0625zm10.8203125 4.359375l0 -1.515625l-6.28125 0l0 1.515625l6.28125 0zm9.335968 -0.59375l0 -1.546875l-4.8125305 0l0 -3.4375l5.5000305 0l0 -1.546875l-7.3906555 0l0 11.375l1.890625 0l0 -4.84375l4.8125305 0zm6.5703125 0.421875l2.1875 4.421875l2.0 0l0 -0.109375l-2.421875 -4.75q0.46875 -0.21875 0.84375 -0.5q0.390625 -0.296875 0.65625 -0.671875q0.28125 -0.390625 0.421875 -0.859375q0.15625 -0.484375 0.15625 -1.0625q0 -0.859375 -0.296875 -1.484375q-0.296875 -0.640625 -0.828125 -1.078125q-0.53125 -0.421875 -1.28125 -0.640625q-0.734375 -0.21875 -1.625 -0.21875l-3.609375 0l0 11.375l1.875 0l0 -4.421875l1.921875 0zm-1.921875 -1.53125l0 -3.890625l1.734375 0q0.484375 0 0.875 0.125q0.390625 0.125 0.671875 0.359375q0.296875 0.25 0.4375 0.625q0.15625 0.359375 0.15625 0.859375q0 0.4375 -0.140625 0.78125q-0.140625 0.34375 -0.390625 0.578125q-0.28125 0.265625 -0.6875 0.421875q-0.390625 0.140625 -0.890625 0.140625l-1.765625 0zm10.0859375 4.828125q0 0.53125 0.34375 0.90625q0.359375 0.375 1.0 0.375q0.640625 0 1.0 -0.359375q0.359375 -0.375 0.359375 -0.921875q0 -0.546875 -0.359375 -0.921875q-0.359375 -0.390625 -1.0 -0.390625q-0.65625 0 -1.0 0.390625q-0.34375 0.375 -0.34375 0.921875zm7.6328125 -10.875l0 1.546875l2.671875 0l0 8.90625l-2.671875 0l0 1.546875l7.109375 0l0 -1.546875l-2.5625 0l0 -10.453125l-4.546875 0zm14.7734375 12.0l1.703125 0l0 -8.453125l-1.875 0l0 5.984375q-0.109375 0.234375 -0.265625 0.421875q-0.15625 0.1875 -0.359375 0.328125q-0.25 0.15625 -0.578125 0.25q-0.3125 0.09375 -0.71875 0.09375q-0.390625 0 -0.6875 -0.09375q-0.28125 -0.109375 -0.46875 -0.359375q-0.1875 -0.234375 -0.28125 -0.625q-0.078125 -0.390625 -0.078125 -0.984375l0 -5.015625l-1.859375 0l0 5.0q0 0.953125 0.203125 1.640625q0.21875 0.6875 0.59375 1.125q0.390625 0.4375 0.9375 0.65625q0.546875 0.203125 1.203125 0.203125q0.765625 0 1.375 -0.359375q0.625 -0.359375 1.046875 -1.0l0.109375 1.1875zm9.4609375 0l1.90625 0l0 -0.140625q-0.15625 -0.328125 -0.234375 -0.78125q-0.078125 -0.453125 -0.078125 -1.03125l0 -3.75q0 -0.71875 -0.265625 -1.265625q-0.265625 -0.5625 -0.734375 -0.921875q-0.46875 -0.359375 -1.125 -0.53125q-0.640625 -0.1875 -1.375 -0.1875q-0.828125 0 -1.484375 0.21875q-0.640625 0.203125 -1.078125 0.578125q-0.453125 0.359375 -0.6875 0.828125q-0.234375 0.46875 -0.234375 0.96875l1.875 0q0 -0.234375 0.078125 -0.453125q0.09375 -0.21875 0.28125 -0.359375q0.1875 -0.171875 0.46875 -0.265625q0.296875 -0.09375 0.671875 -0.09375q0.421875 0 0.75 0.109375q0.328125 0.109375 0.546875 0.296875q0.21875 0.203125 0.328125 0.46875q0.109375 0.265625 0.109375 0.59375l0 0.5625l-1.359375 0q-0.90625 0 -1.640625 0.171875q-0.71875 0.171875 -1.203125 0.5q-0.53125 0.359375 -0.8125 0.890625q-0.28125 0.53125 -0.28125 1.234375q0 0.53125 0.21875 1.0q0.21875 0.46875 0.609375 0.796875q0.375 0.328125 0.921875 0.53125q0.546875 0.1875 1.203125 0.1875q0.40625 0 0.75 -0.078125q0.359375 -0.078125 0.65625 -0.21875q0.3125 -0.140625 0.546875 -0.3125q0.25 -0.1875 0.453125 -0.390625q0.03125 0.234375 0.078125 0.46875q0.0625 0.21875 0.140625 0.375zm-2.265625 -1.34375q-0.359375 0 -0.625 -0.09375q-0.265625 -0.09375 -0.453125 -0.25q-0.171875 -0.15625 -0.265625 -0.375q-0.09375 -0.21875 -0.09375 -0.484375q0 -0.3125 0.109375 -0.5625q0.109375 -0.25 0.34375 -0.421875q0.265625 -0.21875 0.703125 -0.328125q0.453125 -0.109375 1.0625 -0.109375l1.203125 0l0 1.5625q-0.09375 0.203125 -0.28125 0.390625q-0.1875 0.1875 -0.453125 0.328125q-0.25 0.15625 -0.578125 0.25q-0.3125 0.09375 -0.671875 0.09375z" fill-rule="nonzero"/><path fill="#000000" fill-opacity="0.0" d="m542.4304 334.90158l37.29138 0l0 42.015747l-37.29138 0z" fill-rule="evenodd"/><path fill="#666666" d="m552.9773 360.5247q0 0.625 0.40625 1.0625q0.421875 0.4375 1.171875 0.4375q0.734375 0 1.15625 -0.421875q0.421875 -0.4375 0.421875 -1.078125q0 -0.640625 -0.421875 -1.078125q-0.40625 -0.4375 -1.15625 -0.4375q-0.765625 0 -1.171875 0.453125q-0.40625 0.4375 -0.40625 1.0625zm3.578125 0q0 0.625 0.40625 1.0625q0.421875 0.4375 1.171875 0.4375q0.734375 0 1.15625 -0.421875q0.421875 -0.4375 0.421875 -1.078125q0 -0.640625 -0.421875 -1.078125q-0.40625 -0.4375 -1.15625 -0.4375q-0.765625 0 -1.171875 0.453125q-0.40625 0.4375 -0.40625 1.0625zm3.53125 0q0 0.625 0.40625 1.0625q0.421875 0.4375 1.171875 0.4375q0.734375 0 1.15625 -0.421875q0.421875 -0.4375 0.421875 -1.078125q0 -0.640625 -0.421875 -1.078125q-0.40625 -0.4375 -1.15625 -0.4375q-0.765625 0 -1.171875 0.453125q-0.40625 0.4375 -0.40625 1.0625z" fill-rule="nonzero"/><path fill="#00007c" fill-opacity="0.8" d="m237.58005 130.59317l138.8819 0l0 35.178482l-138.8819 0z" fill-rule="evenodd"/><path fill="#d9d9d9" d="m264.14496 145.24304l0 1.8125l3.046875 0l0 6.25l-3.046875 0l0 1.796875l8.125 0l0 -1.796875l-2.890625 0l0 -8.0625l-5.234375 0zm2.84375 -2.546875q0 0.34375 0.15625 0.609375q0.171875 0.25 0.5 0.359375q0.328125 0.09375 0.59375 0.046875q0.265625 -0.0625 0.453125 -0.234375q0.375 -0.09375 0.578125 -0.390625q0.203125 -0.296875 0.140625 -0.703125q-0.046875 -0.390625 -0.359375 -0.640625q-0.296875 -0.25 -0.796875 -0.25q-0.28125 0 -0.515625 0.09375q-0.234375 0.078125 -0.40625 0.234375q-0.171875 0.15625 -0.265625 0.390625q-0.078125 0.21875 -0.078125 0.484375zm7.851837 12.40625l2.1875 0l0 -7.03125q0.140625 -0.25 0.328125 -0.453125q0.203125 -0.21875 0.421875 -0.359375q0.28125 -0.1875 0.625 -0.296875q0.34375 -0.109375 0.75 -0.109375q0.46875 0 0.84375 0.109375q0.375 0.109375 0.640625 0.359375q0.265625 0.234375 0.40625 0.65625q0.140625 0.40625 0.140625 1.015625l0 6.109375l2.171875 0l0 -6.15625q0 -1.03125 -0.25 -1.765625q-0.25 -0.734375 -0.6875 -1.203125q-0.453125 -0.46875 -1.078125 -0.6875q-0.625 -0.21875 -1.390625 -0.21875q-0.5625 0 -1.09375 0.171875q-0.515625 0.15625 -0.953125 0.453125q-0.265625 0.1875 -0.515625 0.4375q-0.234375 0.234375 -0.4375 0.515625l-0.140625 -1.40625l-1.96875 0l0 9.859375zm11.695557 -9.859375l0 1.8125l3.046875 0l0 6.25l-3.046875 0l0 1.796875l8.125 0l0 -1.796875l-2.890625 0l0 -8.0625l-5.234375 0zm2.84375 -2.546875q0 0.34375 0.15625 0.609375q0.171875 0.25 0.5 0.359375q0.328125 0.09375 0.59375 0.046875q0.265625 -0.0625 0.453125 -0.234375q0.375 -0.09375 0.578125 -0.390625q0.203125 -0.296875 0.140625 -0.703125q-0.046875 -0.390625 -0.359375 -0.640625q-0.296875 -0.25 -0.796875 -0.25q-0.28125 0 -0.515625 0.09375q-0.234375 0.078125 -0.40625 0.234375q-0.171875 0.15625 -0.265625 0.390625q-0.078125 0.21875 -0.078125 0.484375zm12.226837 0.140625l-2.1875 0l0 2.40625l-2.375 0l0 1.640625l2.375 0l0 4.84375q0 0.9375 0.25 1.625q0.25 0.671875 0.703125 1.09375q0.4375 0.4375 1.0625 0.640625q0.625 0.203125 1.375 0.203125q0.40625 0 0.8125 -0.046875q0.421875 -0.03125 0.8125 -0.109375q0.375 -0.0625 0.703125 -0.171875q0.34375 -0.109375 0.578125 -0.25l-0.234375 -1.5q-0.171875 0.03125 -0.40625 0.078125q-0.234375 0.046875 -0.515625 0.09375q-0.28125 0.046875 -0.578125 0.078125q-0.296875 0.015625 -0.59375 0.015625q-0.390625 0 -0.71875 -0.078125q-0.328125 -0.09375 -0.5625 -0.3125q-0.234375 -0.21875 -0.375 -0.578125q-0.125 -0.375 -0.125 -0.921875l0 -4.703125l3.703125 0l0 -1.640625l-3.703125 0l0 -2.40625zm9.539307 10.953125q0 0.625 0.40625 1.0625q0.421875 0.4375 1.171875 0.4375q0.734375 0 1.15625 -0.421875q0.421875 -0.4375 0.421875 -1.078125q0 -0.640625 -0.421875 -1.078125q-0.40625 -0.4375 -1.15625 -0.4375q-0.765625 0 -1.171875 0.453125q-0.40625 0.4375 -0.40625 1.0625zm8.898712 -12.6875l0 1.828125l3.125 0l0 10.375l-3.125 0l0 1.796875l8.296875 0l0 -1.796875l-2.984375 0l0 -12.203125l-5.3125 0zm17.242432 14.0l1.96875 0l0 -9.859375l-2.1875 0l0 6.984375q-0.125 0.265625 -0.3125 0.5q-0.171875 0.21875 -0.40625 0.375q-0.28125 0.1875 -0.65625 0.296875q-0.375 0.09375 -0.859375 0.09375q-0.453125 0 -0.796875 -0.109375q-0.328125 -0.125 -0.546875 -0.40625q-0.21875 -0.265625 -0.328125 -0.71875q-0.09375 -0.46875 -0.09375 -1.15625l0 -5.859375l-2.171875 0l0 5.84375q0 1.109375 0.25 1.90625q0.25 0.796875 0.6875 1.3125q0.453125 0.5 1.078125 0.75q0.640625 0.234375 1.40625 0.234375q0.890625 0 1.609375 -0.40625q0.71875 -0.421875 1.234375 -1.15625l0.125 1.375zm11.023712 0l2.21875 0l0 -0.15625q-0.171875 -0.375 -0.265625 -0.90625q-0.09375 -0.546875 -0.09375 -1.203125l0 -4.390625q0 -0.828125 -0.3125 -1.46875q-0.3125 -0.640625 -0.859375 -1.0625q-0.546875 -0.421875 -1.296875 -0.625q-0.75 -0.21875 -1.625 -0.21875q-0.953125 0 -1.71875 0.25q-0.75 0.25 -1.25 0.671875q-0.53125 0.421875 -0.8125 0.96875q-0.265625 0.546875 -0.28125 1.140625l2.1875 0q0 -0.28125 0.109375 -0.53125q0.109375 -0.25 0.328125 -0.4375q0.21875 -0.1875 0.546875 -0.296875q0.328125 -0.109375 0.78125 -0.109375q0.484375 0 0.859375 0.125q0.390625 0.125 0.65625 0.359375q0.234375 0.21875 0.359375 0.53125q0.140625 0.3125 0.140625 0.6875l0 0.671875l-1.578125 0q-1.0625 0 -1.90625 0.203125q-0.84375 0.1875 -1.421875 0.578125q-0.625 0.40625 -0.953125 1.03125q-0.3125 0.625 -0.3125 1.4375q0 0.625 0.25 1.171875q0.25 0.546875 0.703125 0.921875q0.453125 0.390625 1.078125 0.625q0.640625 0.21875 1.40625 0.21875q0.46875 0 0.875 -0.09375q0.421875 -0.09375 0.765625 -0.25q0.359375 -0.15625 0.640625 -0.375q0.296875 -0.21875 0.515625 -0.453125q0.046875 0.28125 0.109375 0.546875q0.0625 0.25 0.15625 0.4375zm-2.640625 -1.5625q-0.421875 0 -0.734375 -0.109375q-0.3125 -0.109375 -0.515625 -0.28125q-0.21875 -0.1875 -0.328125 -0.4375q-0.109375 -0.265625 -0.109375 -0.5625q0 -0.375 0.125 -0.65625q0.140625 -0.296875 0.421875 -0.515625q0.3125 -0.234375 0.828125 -0.359375q0.515625 -0.140625 1.21875 -0.140625l1.40625 0l0 1.8125q-0.109375 0.25 -0.328125 0.46875q-0.21875 0.21875 -0.53125 0.390625q-0.296875 0.171875 -0.671875 0.28125q-0.359375 0.109375 -0.78125 0.109375z" fill-rule="nonzero"/><path fill="#000000" fill-opacity="0.0" d="m156.0 148.18242l81.574814 0" fill-rule="evenodd"/><path stroke="#999999" stroke-width="2.0" stroke-linejoin="round" stroke-linecap="butt" d="m156.0 148.18242l69.5748 0" fill-rule="evenodd"/><path fill="#999999" stroke="#999999" stroke-width="2.0" stroke-linecap="butt" d="m225.5748 151.48589l9.076202 -3.3034668l-9.076202 -3.3034668z" fill-rule="evenodd"/></g></svg>